<?xml version="1.0" encoding="iso-8859-1"?>
<!-- Generator: Adobe Illustrator 19.0.0, SVG Export Plug-In . SVG Version: 6.00 Build 0)  -->
<svg version="1.1" fill="#ffffff" id="Layer_1" xmlns="http://www.w3.org/2000/svg" xmlns:xlink="http://www.w3.org/1999/xlink" x="0px" y="0px"
	 viewBox="0 0 512 512" style="enable-background:new 0 0 512 512;" xml:space="preserve">
<g>
	<g>
		<path d="M284.968,240.071c11.06-8.638,18.193-22.085,18.193-37.175v-17.064v-17.054c0-26.004-21.156-47.16-47.161-47.16
			c-26.004,0-47.16,21.156-47.16,47.16v17.059v17.059c0,15.089,7.132,28.536,18.193,37.174
			c-35.344,12.312-61.505,45.344-61.505,82.619v26.635c0,4.15,3.364,7.514,7.514,7.514H338.96c4.15,0,7.514-3.364,7.514-7.514
			v-26.635C346.473,285.414,320.311,252.382,284.968,240.071z M226.397,156.285c4.885-11.528,16.315-19.637,29.604-19.637
			c13.289,0,24.719,8.108,29.604,19.637c1.628,3.843,2.53,8.066,2.53,12.495v8.324c-12.136-4.028-17.239-16.72-17.476-17.327
			c-1.042-2.751-3.594-4.64-6.529-4.835c-2.929-0.198-5.714,1.34-7.11,3.929c-0.095,0.177-9.015,16.176-33.15,19.022v-9.114h-0.001
			C223.867,164.351,224.768,160.128,226.397,156.285z M223.867,202.898v-9.895c19.276-1.799,31.647-10.308,38.721-17.309
			c4.919,6.719,13.136,14.545,25.545,16.918v10.286c0,17.262-13.684,31.383-30.774,32.099c-0.419-0.011-0.837-0.027-1.256-0.033
			c-0.068-0.001-0.137-0.001-0.205,0c-0.42,0.006-0.838,0.021-1.256,0.033C237.551,234.281,223.867,220.16,223.867,202.898z
			 M252.457,273.472h7.086l8.716,37.835L256,322.527l-12.259-11.22L252.457,273.472z M247.072,250.696
			c0.575-0.079,1.148-0.172,1.724-0.238c0.007-0.001,0.014-0.002,0.021-0.002c1.12-0.127,2.242-0.224,3.364-0.301
			c0.175-0.012,0.351-0.021,0.526-0.032c0.755-0.046,1.511-0.068,2.266-0.09c0.343,0.007,0.682,0.026,1.027,0.026
			c0.345,0,0.683-0.019,1.026-0.026c0.755,0.022,1.512,0.045,2.266,0.09c0.175,0.01,0.35,0.02,0.525,0.032
			c1.123,0.076,2.246,0.173,3.366,0.301c0.006,0.001,0.012,0.002,0.018,0.002c0.577,0.066,1.15,0.159,1.726,0.238l-3.988,7.748
			h-9.879L247.072,250.696z M331.446,341.812H180.555V322.69c0-18.869,8.071-36.928,22.726-50.853
			c8.266-7.854,18.171-13.812,28.758-17.512l6.499,12.626l-10.425,45.253c-0.608,2.639,0.252,5.401,2.249,7.229l20.565,18.822
			c1.436,1.314,3.254,1.971,5.073,1.971c1.818,0,3.638-0.657,5.072-1.971l20.565-18.822c1.998-1.828,2.857-4.591,2.249-7.229
			l-10.425-45.253l6.498-12.625c10.588,3.701,20.492,9.659,28.759,17.512c14.655,13.924,22.726,31.983,22.726,50.852V341.812z"/>
	</g>
</g>
<g>
	<g>
		<path d="M432.633,112.738c-0.575-3.655-3.724-6.348-7.424-6.348c-70.641,0-164.402-55.808-165.34-56.372
			c-2.38-1.43-5.358-1.43-7.739,0c-0.939,0.564-94.63,56.372-165.338,56.372c-3.699,0-6.849,2.693-7.423,6.348
			c-0.146,0.933-3.589,23.222-3.545,56.806c0.005,4.147,3.368,7.504,7.513,7.504c0.003,0,0.007,0,0.01,0
			c4.15-0.005,7.51-3.374,7.504-7.524c-0.029-22.221,1.557-39.532,2.56-48.247c30.309-1.263,66.792-11.072,108.579-29.201
			c25.816-11.201,45.901-22.274,54.01-26.918c8.108,4.643,28.194,15.717,54.01,26.918c41.785,18.13,78.269,27.938,108.575,29.203
			c2.133,18.639,6.895,76.681-7.072,139.365c-0.903,4.051,1.649,8.066,5.7,8.969c0.55,0.123,1.1,0.181,1.641,0.181
			c3.442,0,6.547-2.381,7.328-5.881C443.694,185.316,433.093,115.665,432.633,112.738z"/>
	</g>
</g>
<g>
	<g>
		<path d="M414.589,279.715c-3.973-1.193-8.164,1.058-9.359,5.032c-12.245,40.728-31.342,75.095-56.761,102.145
			c-24.732,26.319-55.833,46.02-92.468,58.583C199.195,426,156.238,389.67,128.296,337.461
			c-20.878-39.009-33.173-86.004-36.545-139.68c-0.26-4.142-3.83-7.288-7.971-7.028c-4.142,0.26-7.289,3.829-7.028,7.971
			c3.508,55.842,16.391,104.905,38.294,145.829c30.205,56.437,76.83,95.459,138.583,115.983c0.769,0.255,1.57,0.384,2.37,0.384
			c0.8,0,1.601-0.128,2.369-0.384c40.06-13.314,74.058-34.628,101.05-63.351c27.027-28.76,47.282-65.134,60.202-108.11
			C420.816,285.1,418.563,280.91,414.589,279.715z"/>
	</g>
</g>
<g>
	<g>
		<path d="M475.271,78.267c-0.574-3.655-3.724-6.348-7.423-6.348c-88.978,0-206.8-70.139-207.979-70.847
			c-2.381-1.43-5.358-1.43-7.739,0C250.95,1.781,133.129,71.92,44.151,71.92c-3.7,0-6.849,2.693-7.423,6.348
			c-0.549,3.495-13.224,86.714,6.687,182.221c11.752,56.369,32.514,105.12,61.708,144.899
			c36.632,49.913,86.596,85.654,148.505,106.23c0.769,0.255,1.57,0.384,2.37,0.384c0.8,0,1.601-0.128,2.37-0.384
			c61.909-20.576,111.874-56.317,148.505-106.23c29.194-39.779,49.956-88.529,61.708-144.899
			C488.497,164.981,475.821,81.763,475.271,78.267z M453.872,257.421c-11.31,54.25-31.199,101.041-59.112,139.074
			c-34.286,46.716-80.959,80.371-138.76,100.062c-57.719-19.665-104.35-53.258-138.62-99.872
			c-27.915-37.968-47.82-84.683-59.165-138.847c-16.395-78.277-9.962-149.922-7.458-171.005
			c38.021-1.286,84.02-13.538,136.87-36.468c33.303-14.449,58.954-28.72,68.374-34.146c9.419,5.426,35.071,19.698,68.373,34.146
			c52.851,22.93,98.852,35.181,136.874,36.468C463.754,107.864,470.18,179.203,453.872,257.421z"/>
	</g>
</g>
<g>
</g>
<g>
</g>
<g>
</g>
<g>
</g>
<g>
</g>
<g>
</g>
<g>
</g>
<g>
</g>
<g>
</g>
<g>
</g>
<g>
</g>
<g>
</g>
<g>
</g>
<g>
</g>
<g>
</g>
</svg>
