<?xml version="1.0" encoding="iso-8859-1"?>
<!-- Generator: Adobe Illustrator 19.0.0, SVG Export Plug-In . SVG Version: 6.00 Build 0)  -->
<svg version="1.1" fill="#ffffff" id="Layer_1" xmlns="http://www.w3.org/2000/svg" xmlns:xlink="http://www.w3.org/1999/xlink" x="0px" y="0px"
	 viewBox="0 0 512.001 512.001" style="enable-background:new 0 0 512.001 512.001;" xml:space="preserve">
<g>
	<g>
		<path d="M325.802,51.662h-0.262c-3.565,0-6.958,0.748-10.031,2.096v-7.781c0-13.815-11.24-25.056-25.056-25.056h-0.261
			c-3.596,0-7.017,0.761-10.111,2.131C279.059,10.17,268.247,0,255.106,0h-0.261c-11.013,0-20.389,7.143-23.74,17.039
			c-3.408-1.738-7.265-2.719-11.346-2.719h-0.261c-13.815,0-25.055,11.239-25.055,25.055v89.136
			c-6.988-5.683-15.895-9.094-25.583-9.094c-4.149,0-7.512,3.362-7.512,7.512v108.695c0,14.418,6.075,28.3,16.669,38.08l9.359,8.643
			v25.054h-4.564c-4.149,0-7.512,3.362-7.512,7.512v44.629h-6.441c-4.149,0-7.512,3.362-7.512,7.512v30.267
			c0,4.149,3.362,7.512,7.512,7.512c4.149,0,7.512-3.362,7.512-7.512v-22.755h6.441h143.489h6.441v122.414h-156.37v-75.673
			c0-4.148-3.362-7.512-7.512-7.512s-7.512,3.363-7.512,7.512v83.184c0,4.149,3.362,7.512,7.512,7.512h171.393
			c4.149,0,7.512-3.362,7.512-7.512V367.05c0-4.149-3.362-7.512-7.512-7.512h-6.441V314.91c0-4.149-3.362-7.512-7.512-7.512h-2.345
			v-25.682l11.498-14.204c9.916-12.248,15.377-27.673,15.377-43.433v-26.777c0.017-0.201,0.024-0.406,0.024-0.611V76.716
			C350.856,62.901,339.617,51.662,325.802,51.662z M318.79,359.539L318.79,359.539H190.324v-37.117h4.564h121.558h2.345V359.539z
			 M335.839,196.081h-0.006c-0.017,0.201-0.024,0.406-0.024,0.611v27.389c0,12.331-4.273,24.398-12.031,33.981l-13.17,16.27
			c-1.083,1.337-1.674,3.006-1.674,4.726v28.341H202.4v-28.341c0-2.096-0.875-4.096-2.415-5.519l-11.775-10.875
			c-7.524-6.947-11.837-16.802-11.837-27.043V135.564c10.452,3.217,18.071,12.964,18.071,24.457v36.796
			c0,3.829,2.888,7.046,6.694,7.466c0.171,0.02,17.342,1.986,34.078,9.714c20.83,9.619,31.392,23.422,31.392,41.025
			c0,4.149,3.362,7.512,7.512,7.512s7.512-3.362,7.512-7.512c0-23.755-13.995-42.713-40.468-54.826
			c-12.272-5.615-24.44-8.473-31.695-9.812V39.374c0-5.531,4.5-10.031,10.031-10.031h0.261c5.532,0,10.032,4.5,10.032,10.031
			v119.653c0,4.149,3.362,7.512,7.512,7.512s7.512-3.362,7.512-7.512V39.374V25.055c0-5.531,4.5-10.031,10.031-10.031h0.261
			c5.532,0,10.032,4.5,10.032,10.031v20.923v113.049c0,4.149,3.362,7.512,7.512,7.512s7.512-3.362,7.512-7.512V45.977
			c0-5.531,4.5-10.032,10.031-10.032h0.261c5.532,0,10.032,4.5,10.032,10.032v30.738v82.311c0,4.149,3.362,7.512,7.512,7.512
			c4.148,0,7.512-3.362,7.512-7.512v-82.31c0-5.531,4.5-10.031,10.031-10.031h0.262c5.531,0,10.031,4.5,10.031,10.031V196.081z"/>
	</g>
</g>
<g>
	<g>
		<circle cx="307.996" cy="402.02" r="7.966"/>
	</g>
</g>
<g>
	<g>
		<circle cx="476.066" cy="428.591" r="7.966"/>
	</g>
</g>
<g>
	<g>
		<path d="M491.005,164.977h-0.194c-1.929,0-3.797,0.267-5.569,0.765v-3.092c0-11.354-9.237-20.591-20.591-20.591h-0.194
			c-2.079,0-4.086,0.31-5.98,0.885c-1.908-9.393-10.231-16.483-20.178-16.483h-0.194c-8.312,0-15.49,4.95-18.739,12.058
			c-2.303-0.892-4.805-1.382-7.419-1.382h-0.194c-11.354,0-20.591,9.237-20.591,20.591v62.73
			c-4.971-3.145-10.858-4.967-17.161-4.967c-4.149,0-7.512,3.362-7.512,7.512v81.036c0,11.282,4.753,22.141,13.041,29.795
			l6.364,5.877v15.929h-1.491c-4.149,0-7.512,3.362-7.512,7.512v31.362h-2.89c-4.149,0-7.512,3.362-7.512,7.512v26.566
			c0,4.149,3.362,7.512,7.512,7.512s7.512-3.362,7.512-7.512v-19.054h2.89h106.976h2.891v87.442H381.511v-43.349
			c0-4.149-3.362-7.512-7.512-7.512s-7.512,3.362-7.512,7.512v50.86c0,4.149,3.362,7.512,7.512,7.512H501.78
			c4.149,0,7.512-3.362,7.512-7.512V402.023c0-4.149-3.362-7.512-7.512-7.512h-2.891V363.15c0-4.093-3.276-7.415-7.348-7.504
			v-16.566l8.147-10.064c7.668-9.472,11.89-21.398,11.89-33.584v-19.901c0.012-0.171,0.017-0.345,0.017-0.519v-89.447
			C511.595,174.213,502.358,164.977,491.005,164.977z M483.866,394.512h-91.953v-23.85h1.491h90.462V394.512z M496.575,274.496
			h-0.003c-0.012,0.171-0.017,0.345-0.017,0.519v20.419c0,8.756-3.034,17.326-8.543,24.132l-9.82,12.13
			c-1.083,1.337-1.674,3.006-1.674,4.726v19.218h-75.602v-19.218c0-2.096-0.875-4.096-2.416-5.519l-8.78-8.107
			c-5.217-4.819-8.21-11.656-8.21-18.759v-71.792c5.709,2.79,9.65,8.657,9.65,15.428v27.433c0,3.835,2.889,7.054,6.701,7.467
			c0.471,0.051,47.1,5.46,47.1,35.926c0,4.149,3.362,7.512,7.512,7.512c4.148,0,7.512-3.362,7.512-7.512
			c0-18.513-10.82-33.247-31.287-42.613c-8.481-3.88-16.903-6.029-22.514-7.154V157.726c0-3.07,2.497-5.568,5.568-5.568h0.194
			c3.071,0,5.569,2.497,5.569,5.568v89.206c0,4.149,3.362,7.512,7.512,7.512s7.512-3.362,7.512-7.512v-89.206v-10.675
			c0-3.07,2.497-5.568,5.568-5.568h0.194c3.071,0,5.568,2.497,5.568,5.568v15.598v84.283c0,4.149,3.363,7.512,7.512,7.512
			c4.149,0,7.512-3.362,7.512-7.512v-84.283c0-3.071,2.498-5.568,5.569-5.568h0.194c3.071,0,5.568,2.497,5.568,5.568v22.918v61.366
			c0,4.149,3.363,7.512,7.512,7.512c4.149,0,7.512-3.362,7.512-7.512v-61.366c0-3.07,2.498-5.569,5.569-5.569h0.194
			c3.071,0,5.568,2.498,5.568,5.569V274.496z"/>
	</g>
</g>
<g>
	<g>
		<circle cx="109.981" cy="428.591" r="7.966"/>
	</g>
</g>
<g>
	<g>
		<path d="M124.924,164.977h-0.194c-1.929,0-3.796,0.266-5.568,0.765v-3.092c0-11.354-9.237-20.591-20.592-20.591h-0.194
			c-2.078,0-4.086,0.31-5.979,0.885c-1.908-9.393-10.232-16.483-20.179-16.483h-0.194c-8.312,0-15.49,4.95-18.738,12.058
			c-2.304-0.892-4.805-1.382-7.419-1.382H45.67c-11.354,0-20.591,9.237-20.591,20.591v62.73c-4.971-3.145-10.858-4.967-17.161-4.967
			c-4.148,0-7.512,3.362-7.512,7.512v81.036c0,11.282,4.753,22.142,13.041,29.795l6.364,5.876v15.93H18.32
			c-4.149,0-7.512,3.362-7.512,7.512v31.362h-2.89c-4.148,0-7.512,3.362-7.512,7.512v26.566c0,4.149,3.363,7.512,7.512,7.512
			c4.149,0,7.512-3.362,7.512-7.512v-19.054h2.89h106.978h2.89v87.442H15.43v-43.349c0-4.149-3.362-7.512-7.512-7.512
			c-4.148,0-7.512,3.362-7.512,7.512v50.86c0,4.149,3.363,7.512,7.512,7.512h127.781c4.149,0,7.512-3.362,7.512-7.512V402.023
			c0-4.149-3.362-7.512-7.512-7.512h-2.89V363.15c0-4.094-3.276-7.416-7.349-7.504v-16.566l8.147-10.063
			c7.668-9.471,11.89-21.398,11.89-33.585v-19.888c0.013-0.175,0.019-0.354,0.019-0.532v-89.447
			C145.516,174.213,136.278,164.977,124.924,164.977z M25.832,394.512v-23.85h1.491h90.463v23.85H25.832z M130.494,274.483h-0.002
			c-0.013,0.175-0.019,0.354-0.019,0.532v20.419c0,8.757-3.034,17.327-8.543,24.132l-9.82,12.13
			c-1.083,1.337-1.674,3.006-1.674,4.726v19.218H34.835v-19.218c0-2.096-0.875-4.096-2.415-5.519l-8.78-8.109
			c-5.218-4.818-8.211-11.655-8.211-18.758v-71.792c5.709,2.79,9.65,8.657,9.65,15.428v27.433c0,3.835,2.889,7.054,6.701,7.467
			c0.471,0.051,47.1,5.46,47.1,35.926c0,4.149,3.363,7.512,7.512,7.512c4.149,0,7.512-3.362,7.512-7.512
			c0-18.513-10.82-33.247-31.287-42.613c-8.481-3.88-16.903-6.029-22.514-7.154V157.726c0-3.07,2.497-5.568,5.568-5.568h0.195
			c3.07,0,5.568,2.497,5.568,5.568v89.206c0,4.149,3.362,7.512,7.512,7.512s7.512-3.362,7.512-7.512v-89.206v-10.675
			c0-3.07,2.497-5.568,5.568-5.568h0.194c3.07,0,5.569,2.497,5.569,5.568v15.598v84.283c0,4.149,3.362,7.512,7.512,7.512
			s7.512-3.362,7.512-7.512v-84.283c0-3.071,2.497-5.568,5.568-5.568h0.194c3.07,0,5.569,2.497,5.569,5.568v22.918v61.366
			c0,4.149,3.362,7.512,7.512,7.512c4.149,0,7.512-3.362,7.512-7.512v-61.366c0-3.07,2.497-5.569,5.568-5.569h0.194
			c3.07,0,5.569,2.498,5.569,5.569V274.483z"/>
	</g>
</g>
<g>
</g>
<g>
</g>
<g>
</g>
<g>
</g>
<g>
</g>
<g>
</g>
<g>
</g>
<g>
</g>
<g>
</g>
<g>
</g>
<g>
</g>
<g>
</g>
<g>
</g>
<g>
</g>
<g>
</g>
</svg>
