<?xml version="1.0" encoding="iso-8859-1"?>
<!-- Generator: Adobe Illustrator 19.0.0, SVG Export Plug-In . SVG Version: 6.00 Build 0)  -->
<svg version="1.1" fill="#ffffff" id="Layer_1" xmlns="http://www.w3.org/2000/svg" xmlns:xlink="http://www.w3.org/1999/xlink" x="0px" y="0px"
	 viewBox="0 0 512.003 512.003" style="enable-background:new 0 0 512.003 512.003;" xml:space="preserve">
<g>
	<g>
		<circle cx="84.142" cy="218.79" r="8.499"/>
	</g>
</g>
<g>
	<g>
		<path d="M509.809,175.158L413.41,78.762c-1.405-1.404-3.309-2.193-5.296-2.193c-1.986,0-3.891,0.789-5.296,2.193l-35.773,35.773
			c-2.925,2.926-2.925,7.666,0,10.592c2.926,2.924,7.666,2.924,10.592,0l30.477-30.479l85.806,85.807l-66.708,66.708l-85.807-85.806
			l19.632-19.631c2.924-2.926,2.924-7.666,0-10.591c-2.926-2.924-7.666-2.924-10.591,0l-24.927,24.927
			c-2.925,2.926-2.925,7.666,0,10.591l2.552,2.552l-24.03,24.029c-1.405,1.405-2.194,3.309-2.194,5.296
			c0,1.986,0.789,3.89,2.193,5.296l1.496,1.496l-12.551,12.551l-9.463-0.376c-10.068-0.4-19.94,2.814-27.835,8.91
			c-7.79-5.788-17.414-8.823-27.214-8.432l-9.463,0.376l-12.551-12.551l1.496-1.496c1.405-1.405,2.194-3.309,2.194-5.296
			c0-1.986-0.789-3.89-2.194-5.296l-24.031-24.03l2.551-2.551c2.925-2.926,2.925-7.666,0-10.591L109.18,79.241
			c-1.404-1.404-3.309-2.193-5.295-2.193c-1.986,0-3.891,0.789-5.295,2.193L2.194,175.636C0.789,177.041,0,178.945,0,180.932
			c0,1.987,0.789,3.89,2.194,5.296l17.849,17.849c2.925,2.924,7.666,2.925,10.59-0.001c2.925-2.925,2.925-7.665,0-10.59
			l-12.554-12.553l85.806-85.807l66.708,66.709L84.787,247.64l-37.092-37.093c-2.925-2.924-7.666-2.924-10.59,0
			c-2.925,2.926-2.925,7.666,0,10.591l42.388,42.388c1.404,1.404,3.309,2.193,5.295,2.193c1.986,0,3.891-0.789,5.295-2.193
			l2.552-2.552l24.031,24.031c1.404,1.404,3.309,2.193,5.295,2.193c1.986,0,3.891-0.789,5.295-2.193l0.249-0.249l12.994,12.994
			l1.465,13.921c1.349,12.81,7.107,24.881,16.214,33.989l7.485,7.485l-5.824,5.824c-8.36,8.36-8.36,21.964,0,30.325l0.147,0.148
			c2.05,2.049,4.413,3.596,6.938,4.64c-1,2.503-1.522,5.202-1.522,7.984c0,5.739,2.225,11.124,6.264,15.163l0.148,0.147
			c7.466,7.467,19.117,8.264,27.478,2.392c1.017,2.038,2.367,3.919,4.022,5.574l0.148,0.147c8.361,8.359,21.964,8.358,30.324,0
			l2.829-2.829c0.998,1.923,2.297,3.699,3.87,5.273l0.147,0.147c4.181,4.18,9.671,6.269,15.162,6.269
			c4.469,0,8.926-1.41,12.689-4.179c3.953,3.495,8.906,5.264,13.873,5.264c5.373,0,10.747-2.046,14.837-6.136
			c2.362-2.362,4.075-5.196,5.087-8.28c1.407,0.29,2.836,0.446,4.267,0.446c5.373,0,10.747-2.046,14.837-6.136c0,0,0,0,0.001,0
			c3.873-3.874,5.889-8.898,6.095-13.983c4.451-0.566,8.758-2.533,12.17-5.945c4.107-4.107,6.149-9.507,6.133-14.9
			c4.261-0.719,8.191-2.715,11.308-5.831c8.181-8.182,8.181-21.492,0-29.675l-1.577-1.577c8.131-8.875,13.263-20.226,14.527-32.225
			l1.465-13.921l12.994-12.993l0.249,0.249c1.405,1.404,3.309,2.193,5.296,2.193c1.986,0,3.89-0.789,5.296-2.193l24.03-24.03
			l2.552,2.552c1.405,1.404,3.31,2.193,5.296,2.193c1.986,0,3.89-0.789,5.296-2.193l77.298-77.299
			C512.734,182.824,512.734,178.083,509.809,175.158z M122.208,268.868c-0.005,0.005-0.009,0.01-0.014,0.016l-0.235,0.234
			l-18.735-18.735l70.112-70.112l18.736,18.734L122.208,268.868z M156.858,310.103l-1.742-16.558
			c-0.18-1.705-0.94-3.299-2.153-4.512l-14.868-14.868l57.776-57.776l14.869,14.869c1.478,1.478,3.506,2.27,5.593,2.188
			l12.738-0.507c5.486-0.224,10.907,1.217,15.54,4.032l-44.837,44.837c-0.497,0.497-0.965,1.017-1.405,1.555
			c-0.065,0.08-0.119,0.166-0.183,0.247c-0.369,0.466-0.726,0.94-1.052,1.432c-0.009,0.014-0.016,0.029-0.026,0.043
			c-2.198,3.336-3.383,7.238-3.383,11.326c0,4.087,1.185,7.99,3.382,11.325c0.009,0.014,0.016,0.029,0.026,0.043
			c0.332,0.5,0.694,0.983,1.07,1.457c0.057,0.072,0.105,0.149,0.164,0.22c0.44,0.538,0.908,1.058,1.406,1.557
			c0.076,0.076,0.157,0.143,0.234,0.218c1.33,1.29,2.787,2.372,4.337,3.233l-28.093,28.093l-7.483-7.485
			C162.078,328.379,157.848,319.513,156.858,310.103z M251.22,417.488l-0.148-0.147c-1.21-1.21-1.876-2.834-1.876-4.571
			c0-0.545,0.073-1.076,0.201-1.591l7.994,7.994C255.252,419.716,252.89,419.159,251.22,417.488z M286.599,418.707
			c-2.34,2.342-6.152,2.342-8.492,0l-4.177-4.177c-0.003-0.003-0.006-0.007-0.009-0.01c-0.003-0.003-0.007-0.006-0.01-0.009
			l-17.059-17.059c-1.134-1.134-1.759-2.642-1.759-4.247s0.624-3.111,1.759-4.247c1.135-1.134,2.643-1.759,4.247-1.759
			c1.571,0,3.047,0.603,4.173,1.692l21.386,21.386c1.096,1.127,1.701,2.607,1.701,4.183
			C288.359,416.065,287.734,417.574,286.599,418.707z M310.791,404.737c-2.342,2.342-6.152,2.342-8.492,0l-5.068-5.068
			c-0.014-0.014-0.026-0.03-0.04-0.044l-21.254-21.256c-0.023-0.023-0.049-0.043-0.073-0.066l-2.226-2.226
			c-1.134-1.134-1.759-2.642-1.759-4.247c0-1.603,0.625-3.111,1.76-4.247c1.134-1.134,2.643-1.759,4.246-1.759
			c1.604,0,3.112,0.625,4.247,1.76l28.66,28.66C313.132,398.587,313.132,402.397,310.791,404.737z M329.055,384.81
			c-2.34,2.342-6.152,2.342-8.494,0l-25.759-25.758c-2.341-2.342-2.341-6.153,0.001-8.494c1.17-1.171,2.708-1.756,4.246-1.756
			s3.076,0.585,4.247,1.756l25.76,25.76C331.397,378.659,331.397,382.469,329.055,384.81z M346.496,364.079
			c-1.134,1.135-2.642,1.76-4.247,1.76c-1.604,0-3.111-0.625-4.246-1.76l-14.003-14.002c-1.134-1.134-1.759-2.643-1.759-4.247
			c0-1.603,0.625-3.111,1.76-4.247c1.134-1.134,2.642-1.759,4.246-1.759c1.605,0,3.112,0.625,4.247,1.76l14.002,14.002
			C348.837,357.927,348.837,361.738,346.496,364.079z M359.036,288.556c-1.213,1.213-1.973,2.806-2.152,4.511l-1.742,16.558
			c-0.905,8.598-4.521,16.737-10.241,23.183l-1.815-1.815c-3.964-3.963-9.233-6.146-14.837-6.146
			c-5.605,0-10.875,2.183-14.836,6.146c-1.658,1.657-2.984,3.553-3.989,5.597c-8.007-4.554-18.387-3.445-25.211,3.378
			c-3.088,3.088-5.006,6.91-5.763,10.908c-0.189-0.005-0.374-0.028-0.563-0.028c-5.604,0-10.875,2.184-14.836,6.146
			c-3.964,3.963-6.147,9.232-6.147,14.837c0,0.27,0.029,0.534,0.039,0.803c-4.02,0.804-7.715,2.771-10.679,5.735
			c-3.963,3.963-6.146,9.232-6.146,14.836c0,1.471,0.159,2.917,0.452,4.324c-0.028,0.027-0.058,0.05-0.086,0.078
			c-0.008,0.009-0.017,0.017-0.024,0.025l-17.265,17.263c-2.52,2.52-6.622,2.522-9.143,0l-0.147-0.147
			c-1.21-1.21-1.876-2.834-1.876-4.571s0.666-3.36,1.876-4.57l63.584-63.583c2.925-2.926,2.925-7.666,0-10.591
			c-2.925-2.923-7.665-2.925-10.591,0l-63.583,63.583l-11.767,11.767c-2.52,2.521-6.622,2.521-9.143,0l-0.148-0.147
			c-1.21-1.21-1.876-2.834-1.876-4.571s0.666-3.361,1.876-4.571l8.054-8.053l67.296-67.296c2.925-2.926,2.925-7.666,0-10.592
			c-2.926-2.924-7.666-2.924-10.59,0l-67.296,67.296c-2.52,2.522-6.622,2.521-9.143,0l-0.147-0.146
			c-2.52-2.521-2.521-6.623-0.001-9.143l11.115-11.115c0.001-0.001,0.003-0.003,0.005-0.004l47.429-47.429l0.002-0.002l7.46-7.46
			l22.541-22.54c2.925-2.926,2.925-7.666,0-10.591c-2.926-2.925-7.666-2.926-10.591-0.001l-0.06,0.06
			c-0.003,0.003-0.007,0.006-0.01,0.009l-29.932,29.932c-0.05,0.05-0.11,0.085-0.161,0.133c-0.23,0.214-0.465,0.419-0.72,0.587
			c-0.076,0.05-0.161,0.082-0.239,0.128c-0.245,0.146-0.491,0.289-0.751,0.394c-0.048,0.02-0.101,0.027-0.149,0.045
			c-0.958,0.357-1.99,0.453-2.987,0.277c-0.029-0.005-0.06-0.003-0.089-0.009c-0.299-0.058-0.593-0.154-0.882-0.261
			c-0.057-0.021-0.118-0.03-0.174-0.053c-0.263-0.107-0.511-0.252-0.759-0.398c-0.075-0.045-0.157-0.075-0.23-0.123
			c-0.312-0.207-0.607-0.445-0.882-0.72c-0.275-0.275-0.515-0.571-0.721-0.884c-0.035-0.053-0.056-0.113-0.09-0.167
			c-0.164-0.267-0.317-0.537-0.432-0.822c-0.012-0.03-0.017-0.063-0.028-0.094c-0.506-1.314-0.506-2.776,0-4.089
			c0.012-0.03,0.016-0.063,0.028-0.094c0.116-0.286,0.27-0.558,0.433-0.825c0.033-0.053,0.053-0.112,0.088-0.164
			c0.207-0.313,0.446-0.609,0.721-0.884l51.827-51.826c5.462-5.463,13.018-8.426,20.737-8.111l12.738,0.507
			c2.077,0.077,4.115-0.71,5.594-2.187l14.868-14.869l57.772,57.776L359.036,288.556z M390.04,268.642l-0.23-0.23
			c-0.007-0.007-0.012-0.014-0.018-0.02c-0.007-0.007-69.857-69.857-69.864-69.863l18.735-18.734l70.112,70.112L390.04,268.642z"/>
	</g>
</g>
<g>
</g>
<g>
</g>
<g>
</g>
<g>
</g>
<g>
</g>
<g>
</g>
<g>
</g>
<g>
</g>
<g>
</g>
<g>
</g>
<g>
</g>
<g>
</g>
<g>
</g>
<g>
</g>
<g>
</g>
</svg>
