<?xml version="1.0" encoding="iso-8859-1"?>
<!-- Generator: Adobe Illustrator 19.0.0, SVG Export Plug-In . SVG Version: 6.00 Build 0)  -->
<svg version="1.1" fill="#219653" id="Layer_1" xmlns="http://www.w3.org/2000/svg" xmlns:xlink="http://www.w3.org/1999/xlink" x="0px" y="0px"
	 viewBox="0 0 512 512" style="enable-background:new 0 0 512 512;" xml:space="preserve">
<g>
	<g>
		<path d="M304.162,127.773h-27.654v-4.621c0-11.451-9.317-20.768-20.768-20.768h-37.751c-11.451,0-20.767,9.317-20.767,20.768
			v4.621h-27.655c-4.15,0-7.515,3.364-7.515,7.515v24.511v65.896c0,4.151,3.365,7.515,7.515,7.515h134.595
			c4.151,0,7.515-3.364,7.515-7.515v-65.896v-24.511C311.677,131.137,308.313,127.773,304.162,127.773z M212.253,123.151
			c0-3.163,2.573-5.738,5.737-5.738h37.751c3.163,0,5.738,2.573,5.738,5.738v4.621h-49.225V123.151z M177.082,142.804
			L177.082,142.804h119.565V159.8c0,8.177-6.653,14.831-14.831,14.831h-89.903c-8.177,0-14.831-6.653-14.831-14.831V142.804z
			 M296.648,218.179H177.083v-32.479c4.373,2.514,9.435,3.96,14.831,3.96h89.903c5.396,0,10.458-1.446,14.831-3.96V218.179z"/>
	</g>
</g>
<g>
	<g>
		<path d="M455.855,344.108l-16.028-16.028v-80.823c0-4.151-3.364-7.515-7.515-7.515s-7.515,3.364-7.515,7.515v65.793l-38.75-38.75
			c-2.936-2.934-7.694-2.934-10.629,0l-1.353,1.353l-16.43-16.43c39.818-57.285,34.215-136.796-16.812-187.824
			c-27.767-27.768-64.686-43.061-103.957-43.061c-39.27,0-76.191,15.293-103.959,43.061c-57.323,57.324-57.323,150.594,0,207.917
			c27.768,27.768,64.689,43.061,103.959,43.061c30.408,0,59.403-9.176,83.835-26.206l16.424,16.424l-1.352,1.352
			c-2.935,2.936-2.935,7.694,0,10.628l69.809,69.809c5.297,5.296,11.973,8.706,19.216,9.914v17.826h-67.332
			c-4.15,0-7.515,3.364-7.515,7.515v67.332H60.781V319.486c0-4.151-3.365-7.515-7.515-7.515c-4.15,0-7.515,3.364-7.515,7.515
			v184.999c0,4.151,3.365,7.515,7.515,7.515h304.199c0.061,0,0.12-0.008,0.18-0.009c0.184-0.004,0.369-0.009,0.552-0.027
			c0.143-0.014,0.285-0.04,0.426-0.063c0.099-0.015,0.2-0.025,0.3-0.045c0.147-0.029,0.291-0.07,0.436-0.108
			c0.091-0.024,0.184-0.042,0.276-0.069c0.141-0.043,0.28-0.097,0.418-0.148c0.091-0.033,0.183-0.061,0.274-0.098
			c0.137-0.057,0.271-0.124,0.405-0.189c0.086-0.042,0.175-0.078,0.261-0.123c0.141-0.075,0.277-0.161,0.413-0.245
			c0.073-0.045,0.148-0.084,0.22-0.132c0.181-0.12,0.356-0.252,0.527-0.388c0.022-0.018,0.047-0.033,0.069-0.051
			c0.194-0.158,0.382-0.328,0.561-0.506l74.846-74.847c0.237-0.237,0.45-0.493,0.651-0.757c0.051-0.067,0.101-0.133,0.149-0.201
			c0.189-0.266,0.367-0.538,0.518-0.825c0.009-0.016,0.015-0.034,0.024-0.051c0.142-0.273,0.263-0.556,0.372-0.845
			c0.029-0.078,0.057-0.155,0.084-0.234c0.103-0.306,0.194-0.616,0.258-0.934c0.001-0.003,0.001-0.007,0.002-0.01
			c0.062-0.313,0.096-0.631,0.118-0.952c0.006-0.084,0.01-0.167,0.013-0.253c0.003-0.085,0.012-0.168,0.012-0.253v-26.021
			c6.008-1.581,11.518-4.723,16.028-9.232c0-0.001,0-0.001,0-0.001C469.714,380.522,469.714,357.969,455.855,344.108z
			 M364.98,486.342v-49.189h49.189L364.98,486.342z M330.157,268.688c-4.134,4.135-8.603,8.046-13.283,11.625
			c-0.124,0.095-0.236,0.2-0.354,0.303c-22.812,17.338-50.511,26.73-79.657,26.73c-35.255,0-68.4-13.73-93.33-38.659
			c-51.462-51.462-51.462-135.198,0-186.66c24.929-24.93,58.075-38.659,93.331-38.659c35.255,0,68.4,13.729,93.329,38.659
			c47.16,47.159,51.095,121.416,11.821,173.107c-0.076,0.09-0.158,0.175-0.23,0.27c-3.579,4.679-7.491,9.148-11.626,13.283
			L330.157,268.688z M332.67,286.884c2.796-2.409,5.516-4.932,8.152-7.568c2.632-2.632,5.14-5.342,7.531-8.118l15.082,15.082
			l-15.685,15.685L332.67,286.884z M445.227,383.753c-3.875,3.876-9.028,6.01-14.508,6.01s-10.632-2.134-14.507-6.01l-64.495-64.494
			l1.343-1.343c0.003-0.003,0.007-0.006,0.01-0.009l26.313-26.313c0.003-0.003,0.006-0.007,0.009-0.01l1.343-1.344l46.26,46.26
			c0.003,0.003,0.007,0.007,0.01,0.01l18.224,18.224C453.226,362.737,453.226,375.754,445.227,383.753z"/>
	</g>
</g>
<g>
	<g>
		<path d="M305.357,259.237c-2.387-3.395-7.072-4.213-10.47-1.825c-17.042,11.984-37.106,18.318-58.022,18.318
			c-55.692,0-101.001-45.309-101.001-101.002c0-26.786,10.378-52.021,29.222-71.055c2.92-2.949,2.896-7.708-0.054-10.627
			c-2.949-2.92-7.708-2.896-10.627,0.054c-21.648,21.867-33.571,50.858-33.571,81.63c0,63.98,52.051,116.032,116.031,116.032
			c24.026,0,47.08-7.281,66.669-21.054C306.928,267.32,307.745,262.632,305.357,259.237z"/>
	</g>
</g>
<g>
	<g>
		<path d="M236.865,58.697c-21.558,0-42.605,5.957-60.864,17.227c-3.532,2.179-4.628,6.81-2.448,10.342
			c2.179,3.531,6.81,4.627,10.342,2.447c15.885-9.804,34.202-14.986,52.97-14.986c55.692,0,101.002,45.309,101.002,101.001
			c0,25.223-9.347,49.372-26.319,68c-2.796,3.067-2.574,7.822,0.494,10.616c1.44,1.314,3.253,1.961,5.059,1.961
			c2.04,0,4.074-0.826,5.557-2.454c19.499-21.402,30.239-49.147,30.239-78.123C352.897,110.748,300.846,58.697,236.865,58.697z"/>
	</g>
</g>
<g>
	<g>
		<path d="M432.311,0H53.266c-4.15,0-7.515,3.364-7.515,7.515v286.92c0,4.15,3.365,7.515,7.515,7.515
			c4.15,0,7.515-3.364,7.515-7.515V15.03h364.015v207.177c0,4.151,3.364,7.515,7.515,7.515s7.515-3.364,7.515-7.515V7.515
			C439.827,3.364,436.463,0,432.311,0z"/>
	</g>
</g>
<g>
	<g>
		<path d="M330.618,384.206H143.11c-4.15,0-7.515,3.364-7.515,7.515c0,4.15,3.365,7.515,7.515,7.515h187.508
			c4.151,0,7.515-3.364,7.515-7.515C338.133,387.57,334.77,384.206,330.618,384.206z"/>
	</g>
</g>
<g>
	<g>
		<path d="M330.618,348.833H143.11c-4.15,0-7.515,3.364-7.515,7.515s3.365,7.515,7.515,7.515h187.508
			c4.151,0,7.515-3.364,7.515-7.515S334.77,348.833,330.618,348.833z"/>
	</g>
</g>
<g>
	<g>
		<path d="M272.393,419.578H143.11c-4.15,0-7.515,3.364-7.515,7.515c0,4.151,3.365,7.515,7.515,7.515h129.283
			c4.151,0,7.515-3.364,7.515-7.515C279.908,422.941,276.544,419.578,272.393,419.578z"/>
	</g>
</g>
<g>
</g>
<g>
</g>
<g>
</g>
<g>
</g>
<g>
</g>
<g>
</g>
<g>
</g>
<g>
</g>
<g>
</g>
<g>
</g>
<g>
</g>
<g>
</g>
<g>
</g>
<g>
</g>
<g>
</g>
</svg>
