<?xml version="1.0" encoding="utf-8"?>
<!-- Generator: Adobe Illustrator 21.1.0, SVG Export Plug-In . SVG Version: 6.00 Build 0)  -->
<svg version="1.1" id="Capa_1" xmlns="http://www.w3.org/2000/svg" xmlns:xlink="http://www.w3.org/1999/xlink" x="0px" y="0px"
	 viewBox="0 0 130 120" fill="#ffffff" style="enable-background:new 0 0 130 120;" xml:space="preserve">
<path d="M81.8,101.5l0.5-1.4c0.6-1.7,0.8-3.6,0.7-5.4L82,82.5c0-0.4,0.1-0.8,0.3-1.1l6.8-10.6c0.6-0.9,0.7-1.9,0.3-2.9
	c-0.3-1-1.1-1.7-2.1-2.1L79.1,63c-0.3-0.1-0.5-0.2-0.7-0.4L74,58.2l1.3-1.3c0.5-0.5,0.8-1,1.1-1.5l1.6,1.6c1.1,1.1,2.6,1.6,4.2,1.5
	l19.5-2.2c0.9-0.1,1.8-0.4,2.5-1l7.1-5.3c1.6-1.2,2.6-3.2,2.6-5.2c0-0.9-0.7-1.6-1.6-1.6c-0.9,0-1.6,0.7-1.6,1.6c0,1-0.5,2-1.3,2.6
	l-7.1,5.3c-0.3,0.2-0.6,0.3-0.9,0.4l-19.5,2.2c-0.6,0.1-1.1-0.1-1.5-0.5L78.7,53c0.6-0.2,1.1-0.6,1.5-1.1l3.7-3.7
	c0.5-0.5,0.9-1.1,1.1-1.7c2,1.2,4.5,0.9,6.2-0.8l0.6-0.6c1.4-1.4,2.4-3.3,2.8-5.3l0,0l2.3-0.8c0,0,0.1,0,0.1,0l2.9,2.9
	c2,2,5.2,2,7.2,0l5.6-5.6c1.4-1.4,2.2-3.3,2.2-5.3c0-0.9-0.7-1.6-1.6-1.6c-0.9,0-1.6,0.7-1.6,1.6c0,1.1-0.4,2.2-1.3,3l-5.6,5.6
	c-0.7,0.7-1.9,0.7-2.6,0L99.4,37c-0.9-0.9-2.2-1.2-3.4-0.8l-1.1,0.4C94.6,35.2,93.9,34,93,33l-1-1c-1-1-2.2-1.6-3.5-1.9l0.4-1.1
	c0.4-1.2,0.1-2.5-0.8-3.4l-2.9-2.9c-0.7-0.7-0.7-1.9,0-2.6l5.6-5.6c0.8-0.8,1.9-1.3,3-1.3c0.9,0,1.6-0.7,1.6-1.6
	c0-0.9-0.7-1.6-1.6-1.6c-2,0-3.9,0.8-5.3,2.2l-5.6,5.6c-2,2-2,5.2,0,7.2l2.9,2.9c0,0,0,0.1,0,0.1L85,30.3l0,0
	c-2,0.4-3.8,1.4-5.3,2.8l-0.6,0.6c-1.7,1.7-1.9,4.3-0.8,6.2c-0.6,0.2-1.2,0.6-1.7,1.1L73,44.8c-0.5,0.5-0.8,1-1.1,1.5l-1.6-1.6
	c-0.4-0.4-0.6-0.9-0.5-1.5L72,23.8c0-0.3,0.2-0.6,0.4-0.9l5.3-7.1c0.6-0.8,1.6-1.3,2.6-1.3c0.9,0,1.6-0.7,1.6-1.6
	c0-0.9-0.7-1.6-1.6-1.6c-2,0-4,1-5.2,2.6l-5.3,7.1c-0.5,0.7-0.9,1.6-1,2.5l-2.2,19.5c-0.2,1.5,0.4,3.1,1.5,4.2l1.6,1.6
	c-0.6,0.2-1.1,0.6-1.5,1.1L66.8,51l-4.4-4.4c-0.2-0.2-0.4-0.4-0.4-0.7l-2.7-8.1c-0.3-1-1.1-1.8-2.1-2.1c-1-0.3-2-0.2-2.9,0.3
	l-10.6,6.8c-0.3,0.2-0.7,0.3-1.1,0.3L30.2,42c-1.8-0.1-3.7,0.1-5.4,0.7l-1.4,0.5c-0.9,0.3-1.3,1.2-1,2.1c0.1,0.2,0.2,0.5,0.4,0.6
	c0.4,0.4,1.1,0.6,1.7,0.4l1.4-0.5c1.3-0.4,2.7-0.6,4.1-0.5l12.3,0.9c1.1,0.1,2.2-0.2,3.1-0.8L56,38.7c0,0,0,0,0.1,0
	c0,0,0.1,0.1,0.1,0.1l2.7,8.1c0.2,0.7,0.7,1.4,1.2,2l4.4,4.4l-0.1,0.1c-0.6,0.6-1,1.3-1.2,2l-14.1-1.1c-1.7-0.1-3.3,0.6-4.3,1.9
	l-9.4,11.4c0,0-0.1,0-0.1,0l-14.2,0c-1.8,0-3.5,0.7-4.8,2l-0.9,0.9c-0.6,0.6-0.6,1.7,0,2.3c0.6,0.6,1.7,0.6,2.3,0l0.9-0.9
	c0.7-0.7,1.6-1,2.5-1l14.2,0c1,0,2-0.4,2.6-1.2l9.4-11.4c0.4-0.5,1-0.7,1.6-0.7l10.6,0.8c-0.7,0.7-1.1,1.6-1.3,2.5
	c-3.7-1.4-7.9-0.6-10.9,2.4c-3.9,3.9-5.3,11.7-1.2,15.8c4.1,4.1,11.8,2.7,15.8-1.2c2.9-2.9,3.7-7.2,2.4-10.9
	c0.9-0.2,1.8-0.6,2.5-1.3l0.8,10.6c0,0.6-0.2,1.2-0.7,1.6L55.4,87c-0.8,0.6-1.2,1.6-1.2,2.6v14.2c0,1-0.4,1.9-1,2.5l-0.9,0.9
	c-0.6,0.6-0.6,1.7,0,2.3c0.6,0.6,1.7,0.6,2.3,0l0.9-0.9c1.3-1.3,2-3,2-4.8V89.6c0,0,0-0.1,0-0.1l11.4-9.4c1.3-1.1,2-2.7,1.9-4.3
	l-1.1-14.1c0.7-0.2,1.4-0.6,2-1.2l0.1-0.1l4.4,4.4c0.6,0.6,1.2,1,2,1.2l8.1,2.7c0,0,0,0,0.1,0.1c0,0,0,0.1,0,0.1l-6.8,10.6
	c-0.6,0.9-0.9,2-0.8,3.1L79.7,95c0.1,1.4-0.1,2.8-0.5,4.1l-0.5,1.4c-0.2,0.6,0,1.2,0.4,1.7c0.2,0.2,0.4,0.3,0.6,0.4
	C80.6,102.9,81.6,102.4,81.8,101.5z M66.8,55.6l3.7-3.7c0.7-0.7,1.9-0.7,2.6,0s0.7,1.9,0,2.6l-3.7,3.7c-0.7,0.7-1.9,0.7-2.6,0
	S66,56.4,66.8,55.6z M79,43.4c0.7-0.7,1.9-0.7,2.6,0s0.7,1.9,0,2.6l-3.7,3.7c-0.7,0.7-1.9,0.7-2.6,0s-0.7-1.9,0-2.6L79,43.4z
	 M81.5,36l0.6-0.6c1-1,2.2-1.7,3.6-1.9l0.8-0.2c1.2-0.2,2.4,0.1,3.2,1l1,1c0.8,0.8,1.2,2.1,1,3.2l-0.2,0.8c-0.3,1.4-0.9,2.6-1.9,3.6
	L89,43.5c-0.7,0.7-1.9,0.7-2.6,0l-4.9-4.9C80.7,37.9,80.7,36.8,81.5,36z M59.6,75.4c-2.8,2.8-8.5,3.9-11.2,1.2
	c-2.7-2.7-1.6-8.4,1.2-11.2c2.7-2.7,7.2-2.7,10,0C62.3,68.2,62.3,72.6,59.6,75.4z M61.9,60.5c0.7-0.7,1.9-0.7,2.6,0
	c0.7,0.7,0.7,1.9,0,2.6c-0.7,0.7-1.9,0.7-2.6,0S61.1,61.3,61.9,60.5z"/>
</svg>
