<?xml version="1.0" encoding="utf-8"?>
<!-- Generator: Adobe Illustrator 21.1.0, SVG Export Plug-In . SVG Version: 6.00 Build 0)  -->
<svg version="1.1" id="Capa_1" xmlns="http://www.w3.org/2000/svg" xmlns:xlink="http://www.w3.org/1999/xlink" x="0px" y="0px"
	 viewBox="0 0 130 120" fill="#ffffff" style="enable-background:new 0 0 130 120;" xml:space="preserve">
<g>
	<path d="M31.6,48.4c0.5,0.8,1.5,1.1,2.3,0.6c0.4-0.2,0.7-0.4,1.1-0.6c0.4-0.2,0.7-0.6,0.8-1c0.1-0.4,0.1-0.9-0.1-1.3
		c-0.2-0.4-0.6-0.7-1-0.8c-0.2-0.1-0.3-0.1-0.5-0.1c-0.3,0-0.5,0.1-0.8,0.2c-0.4,0.2-0.9,0.5-1.3,0.7c-0.4,0.2-0.7,0.6-0.8,1
		C31.3,47.5,31.4,48,31.6,48.4L31.6,48.4z"/>
	<path d="M99.8,69.2v-2.8c0-0.9-0.8-1.7-1.7-1.7c-0.9,0-1.7,0.8-1.7,1.7v2.8c0,0.9,0.8,1.7,1.7,1.7C99,70.9,99.8,70.1,99.8,69.2z"/>
	<path d="M125.7,59.2c-0.3-0.4-0.7-0.6-1.1-0.6c-0.5-0.1-0.9,0.1-1.3,0.3l-3.2,2.4l-0.5-0.2c-0.4-0.2-0.8-0.3-1.2-0.4l-23.3-5V42.2
		c0-0.5-0.2-1-0.6-1.3c-0.4-0.3-0.9-0.5-1.4-0.4c-3,0.5-9.1,3.5-11,11.4L82,52.8l-0.9-0.2c-4.3-1.2-8.5-2.7-12.3-4
		C59,45.2,49.7,42,41.2,43c-0.4,0.1-0.9,0.3-1.1,0.6c-0.3,0.4-0.4,0.8-0.4,1.2c0.1,0.4,0.3,0.9,0.6,1.1c0.4,0.3,0.8,0.4,1.2,0.4
		c7.7-0.9,16.7,2.2,26.1,5.4c4.9,1.7,9.9,3.4,15.2,4.7c1.2,0.3,2.3,0.6,3.5,0.8l31.4,6.7c0.3,0.1,0.6,0.3,0.8,0.5
		c0.2,0.2,0.2,0.5,0.2,0.8c-0.4,4-2.2,7.8-5.2,10.6c-2.9,2.8-6.8,4.4-10.8,4.6L81,81.8L80.6,81h0l0.3,0.8L80.6,82L80,81.4
		c0,0,0,0,0,0l0.5,0.7l-0.7-0.5l0,0l0.6,0.6l-0.7-0.5l0.6,0.6l-0.1,0.1l-0.8-0.3l0,0l0.7,0.5l-0.8-0.2l0,0l0.8,0.4l-0.1,0.1L79,82.7
		v0l0.8,0.2l-0.1,0.5l0,0.2L79,84c0,0,0,0,0,0l0.8-0.2l0,0.2l-0.7,0.5v0l0,0l0.8-0.3l-0.7,0.5l0,0l0.8-0.4l0.2,0.3l-0.5,0.7l0,0l0,0
		l0.6-0.6l-0.4,0.7l0.6-0.6l0.1,0.1L80,85.6l0,0l0.5-0.7l-0.3,0.8l0,0l0.4-0.8l0.4,0.1c0.1,0,0.2,0,0.2,0c0.1,0,0.1,0,0.2,0H82
		c2.6,0,5,1.5,6.1,3.8l0.6,1.2H75.4c-1.1,0-1.9-0.9-1.9-1.9V76.2c0-0.9-0.8-1.7-1.7-1.7c-0.9,0-1.7,0.8-1.7,1.7v5.6H57.4l1-1.4
		c1.6-2.2,2.5-4.8,2.5-7.6c0-10.1-8.2-18.3-18.3-18.3c-0.9,0-1.7,0.8-1.7,1.7c0,0.9,0.8,1.7,1.7,1.7c8.2,0,14.9,6.7,14.9,14.9
		c0,2.5-1,4.9-2.8,6.7c-1.1,1.1-2.4,1.9-3.8,2.3c-0.9,0.3-1.8,0.4-2.7,0.5l-0.2,0c-1,0-1.7,0.8-1.7,1.7c0,0.9,0.6,1.6,1.5,1.7
		c0.2,0,0.3,0,0.4,0H55c2.6,0,5,1.5,6.1,3.8l0.6,1.2H35.2c-4.1,0-7.7-2.3-9.5-5.9c-3-6.1-7-17.9,0.9-28.9c0.7-0.9,1.4-1.8,2.1-2.6
		c0.6-0.7,0.6-1.8-0.1-2.4c-0.3-0.3-0.8-0.5-1.2-0.4c-0.5,0-0.9,0.2-1.2,0.6C25.4,52,24.6,53,23.8,54c-2.9,4.1-4.7,8.6-5.1,13.4
		l-0.1,0.9l-0.9-0.2c-6-1.1-10.4-6.5-10.4-12.9c0-7,2.7-13.5,7.6-18.5c4.9-4.9,11.5-7.6,18.5-7.6c3.5,0,7,0.2,10.4,0.6
		c3.4,0.4,6.9,1,10.3,1.9c0.9,0.2,1.8-0.3,2-1.2c0.2-0.9-0.3-1.8-1.2-2c-3.5-0.9-7.1-1.5-10.7-1.9c-3.6-0.4-7.2-0.6-10.8-0.6
		c-7.9,0-15.3,3.1-20.9,8.6c-5.6,5.6-8.6,13-8.6,20.9c0,8.4,5.9,15.3,14,16.3l0.7,0.1l0,0.7c0.4,5.8,2.4,10.8,4,14
		c2.4,4.8,7.2,7.8,12.6,7.8h28.2c0.9,0,1.7-0.8,1.7-1.7c0-2.2-0.7-4.2-2-6l-1-1.4h7.9v3.1c0,2.9,2.4,5.3,5.3,5.3h15
		c0.9,0,1.7-0.8,1.7-1.7c0-2.1-0.7-4.2-1.9-5.9l-0.9-1.3L103,84c4.9-0.2,9.5-2.2,13-5.6c3.5-3.4,5.7-7.9,6.2-12.7c0-0.3,0-0.7,0-1
		l-0.1-0.5l3.3-2.5C126.1,61.1,126.3,60,125.7,59.2z M91.8,55L87,54c-0.3-0.1-0.6-0.1-0.9-0.2l-0.8-0.2l0.2-0.8c1-4.1,3.2-6.4,5-7.5
		l1.3-0.9V55z"/>
</g>
</svg>
