<?xml version="1.0" encoding="utf-8"?>
<!-- Generator: Adobe Illustrator 21.1.0, SVG Export Plug-In . SVG Version: 6.00 Build 0)  -->
<svg version="1.1" id="Capa_1" xmlns="http://www.w3.org/2000/svg" xmlns:xlink="http://www.w3.org/1999/xlink" x="0px" y="0px"
	 viewBox="0 0 130 120" fill="#ffffff" style="enable-background:new 0 0 130 120;" xml:space="preserve">
<path d="M97.9,66.6c2.4-14.1,3.2-27.1,3.2-29.2c0.2-0.4,0.4-0.8,0.5-1.3c0.2-0.9,0.2-1.8,0-2.7c0,0,0,0,0.1-0.1
	c1.3-1.3,1.7-3.2,1.2-5.1c1.1-0.7,5.1-2.9,10.4-1.5c0.8,0.2,1.5-0.2,1.7-1c0.2-0.8-0.2-1.5-1-1.7c-5.9-1.6-10.4,0.5-12.3,1.6
	c-0.3-0.4-0.6-0.9-1-1.3c-0.4-0.4-0.8-0.7-1.3-1c1.1-1.9,3.2-6.4,1.6-12.3c-0.2-0.8-1-1.2-1.7-1c-0.8,0.2-1.2,1-1,1.7
	c1.4,5.3-0.7,9.3-1.5,10.4c-1.9-0.5-3.8-0.1-5.1,1.2c0,0,0,0-0.1,0.1c-0.9-0.2-1.8-0.3-2.7,0c-0.5,0.1-0.9,0.3-1.3,0.5
	c-2.1-0.1-15.1,0.8-29.2,3.2c-19.4,3.2-32.1,7.7-37.6,13.2c-4.5,4.5-6.3,8.1-5.6,11.1c0.3,1.1,0.8,2,1.5,2.7
	c1.4,1.4,3.3,2.1,4.4,2.4c0.1,0,0.2,0.1,0.3,0.1c1.9,0.7,10.1,3,18.7,4.3c10,1.5,17.1,1.1,21-1.3c0.4,0.9,0.9,1.9,1.7,2.7
	c0.7,0.7,1.8,1.3,2.7,1.7C63,67.9,62.5,75,64,85c1.3,8.6,3.6,16.8,4.3,18.7c0,0.1,0.1,0.2,0.1,0.3c0.3,1,1,3,2.4,4.4
	c0.7,0.7,1.6,1.3,2.7,1.5c3,0.7,6.7-1.1,11.1-5.6C90.2,98.7,94.6,86.1,97.9,66.6z M87,29.8c0.4-1.5,1.2-3.3,2.6-3.6
	c1.4-0.4,3.6,0.8,6,3.2c2.4,2.4,3.6,4.6,3.2,6c-0.3,1.3-2.2,2.2-3.6,2.6c-1.6,0.5-5.5,1.4-7.6-0.6C85.6,35.3,86.5,31.4,87,29.8z
	 M98.6,26.4c1.2,1.2,1.8,2.8,1.5,4c-0.7-1.1-1.6-2.2-2.5-3c-0.9-0.9-1.9-1.8-3-2.5C95.8,24.6,97.4,25.2,98.6,26.4z M40.4,58.2
	c-9-1.3-17.1-3.8-18.2-4.2c-0.1,0-0.2-0.1-0.3-0.1c-1.2-0.4-3.6-1.2-4-3c-0.4-1.9,1.3-4.9,4.8-8.5c5-5,17.4-9.3,35.9-12.4
	c11.4-1.9,21.9-2.8,26.5-3.1c-0.2,0.4-0.4,0.8-0.5,1.3c-2.7,0.5-11.4,2.1-20.5,4.2c-6.4,1.5-11.8,2.9-16,4.2
	c-5.5,1.7-8.8,3.3-10.4,4.8c-0.6,0.6-0.6,1.4,0,2c0.6,0.6,1.4,0.6,2,0c1.3-1.3,6.2-4,24.9-8.3c7.9-1.8,15.5-3.3,19.1-3.9
	c0,0.3-0.1,0.5-0.1,0.8c-0.1,0-0.3,0-0.4,0.1c-1.2,0.4-29,8.8-34.5,14.3c-0.6,0.6-0.6,1.4,0,2c0.6,0.6,1.4,0.6,2,0
	c4.1-4.1,24.7-11,32.9-13.5c0,0.2,0,0.3,0.1,0.5c-1,0.8-16,13.8-23,21C58,59.1,50.8,59.7,40.4,58.2z M63.3,57.7
	c6.3-6.4,18.2-16.7,21.4-19.5c0.3,0.4,0.6,0.8,0.9,1.2s0.8,0.7,1.2,0.9C84,43.6,73.7,55.4,67.3,61.7c-0.8-0.3-2-0.8-2.6-1.4
	C64.1,59.7,63.6,58.6,63.3,57.7z M74.1,107.1c-1.8-0.4-2.6-2.9-3-4c0-0.1-0.1-0.2-0.1-0.3c-0.4-1.1-2.8-9.1-4.2-18.2
	c-1.6-10.4-0.9-17.6,1.8-20.3c7.2-7,20.2-22,21-23c0.2,0,0.3,0,0.5,0.1c-2.5,8.2-9.4,28.8-13.5,32.9c-0.6,0.6-0.6,1.4,0,2
	c0.6,0.6,1.4,0.6,2,0c5.5-5.5,14-33.3,14.3-34.5c0-0.1,0.1-0.3,0.1-0.4c0.3,0,0.5-0.1,0.8-0.1c-0.7,3.6-2.1,11.2-3.9,19.1
	c-4.3,18.8-7,23.7-8.3,24.9c-0.6,0.6-0.6,1.4,0,2c0.6,0.6,1.4,0.6,2,0c1.5-1.5,3.1-4.9,4.8-10.4c1.3-4.2,2.7-9.5,4.2-16
	c2.1-9.1,3.7-17.9,4.2-20.5c0.5-0.2,0.9-0.3,1.3-0.5c-0.3,4.6-1.2,15-3.1,26.5c-3.1,18.5-7.4,30.9-12.4,35.9
	C79.1,105.8,76,107.5,74.1,107.1z"/>
</svg>
