<?xml version="1.0" encoding="utf-8"?>
<!-- Generator: Adobe Illustrator 21.1.0, SVG Export Plug-In . SVG Version: 6.00 Build 0)  -->
<svg version="1.1" id="Capa_1" fill="#ffffff" xmlns="http://www.w3.org/2000/svg" xmlns:xlink="http://www.w3.org/1999/xlink" x="0px" y="0px"
	 viewBox="0 0 130 120" style="enable-background:new 0 0 130 120;" xml:space="preserve">
<path d="M112.2,58.8c0-0.4-0.1-0.8-0.3-1c-0.2-0.3-0.6-0.5-1-0.5c-0.4,0-0.8,0.1-1,0.3l-9.3,7.9c-1.8,1.6-4.4,1.8-6.6,0.7l-3.5-1.8
	l0.1-0.2c0.8-1.9,0.7-4-0.2-5.8l-0.1-0.1l4.5-7.6c0.9-1.6,1-3.5,0.3-5.1l-0.1-0.2l0.1-0.1c0.1-0.1,0.3-0.3,0.5-0.5
	c1-0.9,2.7-2.5,3-5.1l0-0.3l0.3,0.1c3.4,0.9,7.1-0.9,10.5-5.1c0.5-0.6,0.4-1.5-0.2-2c-0.3-0.2-0.7-0.3-1.1-0.3c-0.4,0-0.7,0.2-1,0.5
	c-2.1,2.6-4.2,4.1-6.2,4.2c-1.5,0.1-2.4-0.5-2.7-0.8l-0.1,0l0-0.1c-0.6-1.7-1.6-2.6-3.3-4.3c-0.9-0.8-1.9-1.9-3.3-3.3
	c-0.7-0.7-1.6-1.3-2.5-1.7l-0.1,0l0-0.1c-0.3-0.5-0.6-1.2-0.5-2.3c0.2-1.9,1.6-4.1,4.2-6.2c0.3-0.2,0.5-0.6,0.5-1
	c0-0.4-0.1-0.8-0.3-1.1c-0.2-0.3-0.6-0.5-1-0.5c-0.4,0-0.8,0.1-1.1,0.3c-2.8,2.3-6,5.9-5.2,10l0.1,0.3l-0.3,0
	c-2.8,0.3-4.5,2-5.4,3.1c-0.2,0.2-0.3,0.4-0.5,0.5l-0.1,0.1l-0.2-0.1c-1.6-0.7-3.5-0.6-5.1,0.3l-7.6,4.5l-0.1-0.1
	c-1.8-0.9-3.9-1-5.8-0.2l-0.2,0.1L58.8,31c-1.1-2.1-0.8-4.7,0.7-6.6l7.9-9.3c0.5-0.6,0.4-1.5-0.2-2c-0.6-0.5-1.5-0.4-2,0.2l-7.9,9.3
	c-2.3,2.7-2.7,6.6-1.1,9.7l2,3.8L55.9,38c-0.3,0.2-0.5,0.6-0.5,1c0,0.4,0.1,0.8,0.3,1c0.2,0.3,0.6,0.5,1,0.5c0.4,0,0.8-0.1,1-0.3
	l3.2-2.6c1.6-1.3,3.8-1.2,5.3,0.3l4.9,4.9l-0.2,0.2c-0.3,0.3-0.5,0.5-0.6,0.6c-0.7,0.7-1,1-1.4,1.6c-1.9,2.7-2,6.1-0.2,8.9l0.1,0.2
	L48.7,74.3h-0.1c-1.3,0-7.7,0-8,0c-0.4,0-0.8-0.2-0.9-0.6c-3.3-8.4-0.8-17.9,6.1-23.6l8.5-7c0.3-0.2,0.5-0.6,0.5-1
	c0-0.4-0.1-0.8-0.3-1c-0.5-0.6-1.4-0.7-2-0.2l-1.8,1.5l-2.9-2.9c-1.6-1.6-3.9-2.6-6.3-2.6c0,0,0,0,0,0l-11.7,0.1
	c-0.6,0-1.1,0.3-1.3,0.9c-0.2,0.5-0.1,1.1,0.3,1.6c0.5,0.5,0.5,0.5,3.4,0.4l0.1,0c1.7,0,4.6-0.1,9.2-0.1c1.6,0,3.1,0.6,4.2,1.7
	l2.7,2.7l-0.2,0.2c-1,0.9-1.9,1.5-2.6,2.1c-1.9,1.5-3,2.4-4.4,4l-0.1,0.1L35,49.9c-1.7-0.2-3.3,0.1-4.8,0.8l-11.6,5.7
	c-0.7,0.3-1,1.2-0.7,1.9c0.3,0.7,1.2,1,1.9,0.7l11.6-5.7c1.7-0.8,3-0.6,5-0.4c0.7,0.1,1.4,0.2,2.2,0.3l0.4,0l-0.2,0.3
	c-3.9,6.3-4.7,14.2-1.9,21.1c0.2,0.5,0.5,0.9,0.9,1.3c1.2,1.2,2.5,1.1,3,1.1l0.1,0l0.1,0.1c1.8,2.7,4.1,5,6.7,6.7l0.1,0.1l0,0.1
	c0,0.4,0,1.8,1.1,3c0.4,0.4,0.8,0.7,1.3,0.9c3.4,1.3,7.1,1.9,10.7,1.5c0.4,0,0.7-0.2,1-0.5c0.2-0.3,0.4-0.7,0.3-1
	c0-0.4-0.2-0.7-0.5-1c-0.3-0.2-0.7-0.4-1-0.3c-3.2,0.3-6.5-0.2-9.4-1.3c-0.4-0.1-0.6-0.5-0.6-0.9l0-8.1l20.1-20.1l0.2,0.1
	c3.1,2,7.3,1.6,9.9-1l1.4-1.4l4.9,4.9c1.4,1.4,1.6,3.7,0.3,5.2c0,0.1-0.5,0.7-10.7,13.1l-1.8,2.2c-2.6,3.2-6,5.5-9.9,6.6
	c-0.8,0.2-1.2,1-0.9,1.8c0.1,0.4,0.4,0.7,0.7,0.8c0.3,0.2,0.7,0.2,1.1,0.1c2-0.6,3.8-1.4,5.5-2.5l0.3-0.2l0,0.4
	c0.1,0.8,0.2,1.6,0.3,2.2c0.3,2,0.5,3.4-0.4,5l-5.7,11.6c-0.3,0.6-0.2,1.2,0.3,1.6c0.3,0.3,0.8,0.5,1.2,0.4c0.5-0.1,0.8-0.4,1-0.8
	l5.7-11.6c0.7-1.5,1-3.2,0.8-4.8l-0.7-6.2l0.1-0.1c1.5-1.4,2.4-2.5,3.9-4.3l0-0.1c0.6-0.7,1.3-1.6,2.2-2.6l0.2-0.2l2.7,2.7
	c1.1,1.1,1.7,2.7,1.7,4.2L85,95.3c0,0.4,0.1,0.7,0.4,1c0.3,0.3,0.6,0.4,1,0.4c0.8,0,1.4-0.6,1.4-1.4L88,83.6c0-2.3-0.9-4.6-2.6-6.3
	l-2.9-2.9l6.3-7.6l3.8,2c3.2,1.7,7,1.2,9.7-1.1l9.3-7.9C112,59.6,112.2,59.2,112.2,58.8z M47.8,80.6l-0.4-0.3
	c-1-0.8-1.9-1.7-2.7-2.7l-0.3-0.4h3.4V80.6z M83.1,30.4c0.9-0.9,2-1.4,3.3-1.4c0,0,0,0,0,0c1.2,0,2.4,0.5,3.3,1.4l4.9,4.9
	c0.9,0.9,1.4,2.1,1.4,3.3c0,1.2-0.5,2.4-1.4,3.3l-1.3,1.3L81.8,31.8L83.1,30.4z M78.8,53.3c-0.9,0.9-2.2,1.5-3.6,1.5
	s-2.6-0.5-3.6-1.5c-0.9-0.9-1.5-2.2-1.5-3.6c0-1.3,0.5-2.6,1.5-3.6l1.4-1.4l7.1,7.1L78.8,53.3z M88.3,56L69,36.7l6.8-4
	c1-0.6,2.4-0.5,3.2,0.4l13,13c0.9,0.9,1,2.2,0.4,3.2L88.3,56z"/>
</svg>
