<?xml version="1.0" encoding="utf-8"?>
<!-- Generator: Adobe Illustrator 21.1.0, SVG Export Plug-In . SVG Version: 6.00 Build 0)  -->
<svg version="1.1" id="Capa_1" xmlns="http://www.w3.org/2000/svg" xmlns:xlink="http://www.w3.org/1999/xlink" x="0px" y="0px"
	 viewBox="0 0 130 120" fill="#ffffff" style="enable-background:new 0 0 130 120;" xml:space="preserve">
<path d="M115,53.7c0-0.9-0.6-1.6-1.5-1.6c-5.7-0.3-15.7,0-30.6,3.3C76.6,56.8,71.5,58.2,69,59c-0.2-0.7-0.6-1.3-1.1-1.8
	c-0.5-0.5-1.2-0.9-1.8-1.1c0.8-2.5,2.2-7.6,3.6-13.9c3.3-15,3.6-24.9,3.3-30.6c0-0.9-0.8-1.5-1.6-1.5c-0.9,0-1.5,0.8-1.5,1.6
	c0.9,17.4-5.8,40.2-7.1,44.4c-0.7,0.2-1.3,0.6-1.8,1.1l-2.2,2.2c-0.5,0.1-1,0.3-1.5,0.4l-1.8-5.3v-5.4c0-1.3-0.5-2.5-1.4-3.4
	c-0.6-0.6-1.6-0.6-2.2,0c-0.6,0.6-0.6,1.6,0,2.2c0.3,0.3,0.5,0.8,0.5,1.2v5.6c0,0.2,0,0.3,0.1,0.5l2,6.1c-0.2,0.1-0.3,0.3-0.5,0.5
	c-0.5,0.5-0.8,0.9-1.1,1.4l-2.6-2.6c-0.2-0.2-0.4-0.3-0.7-0.4l-8-2c-0.6-0.1-1.1-0.5-1.6-0.9l-2.5-2.5c-0.6-0.6-1.6-0.6-2.2,0
	c-0.6,0.6-0.6,1.6,0,2.2l2.5,2.5c0.8,0.8,1.9,1.4,3,1.7l7.6,1.9l2.7,2.7c-3,1-6.1,3.1-9.1,5.8l-2.7-1.4c-1.2-0.6-2.7-0.4-3.7,0.6
	l-9.9,9.9c-0.5,0.5-1.1,0.9-1.7,1.3l-8.1,4.1c-0.8,0.4-1.1,1.3-0.7,2.1c0.1,0.2,0.2,0.3,0.3,0.4c0.5,0.5,1.2,0.6,1.8,0.3l8.1-4.1
	c0.9-0.5,1.8-1.1,2.5-1.8l9.9-9.9c0,0,0.1,0,0.1,0l1.7,0.9c-3.9,3.9-7.4,8.5-9.9,11.9c-1.9,2.6-1.5,6.2,0.8,8.5l0.2,0.2
	c2.3,2.3,5.9,2.6,8.5,0.8c3.5-2.5,8-6,11.9-9.9l0.9,1.7c0,0,0,0.1,0,0.1l-9.9,9.9c-0.7,0.7-1.4,1.6-1.8,2.5l-4.1,8.1
	c-0.3,0.6-0.2,1.3,0.3,1.8c0.1,0.1,0.2,0.2,0.4,0.3c0.8,0.4,1.7,0.1,2.1-0.7L43,101c0.3-0.6,0.7-1.2,1.3-1.7l9.9-9.9
	c1-1,1.2-2.5,0.6-3.7L53.4,83c2.7-3,4.8-6.1,5.8-9.1l2.7,2.7l1.9,7.6c0.3,1.1,0.9,2.2,1.7,3l2.5,2.5c0.6,0.6,1.6,0.6,2.2,0
	s0.6-1.6,0-2.2L67.6,85c-0.4-0.4-0.7-1-0.9-1.6l-2-8c-0.1-0.3-0.2-0.5-0.4-0.7l-2.6-2.6c0.5-0.2,1-0.6,1.4-1.1
	c0.2-0.2,0.3-0.3,0.5-0.5l6.1,2c0.2,0.1,0.3,0.1,0.5,0.1h5.6c0.5,0,0.9,0.2,1.2,0.5c0.6,0.6,1.6,0.6,2.2,0c0.6-0.6,0.6-1.6,0-2.2
	c-0.9-0.9-2.1-1.4-3.4-1.4h-5.4l-5.3-1.8c0.2-0.5,0.3-1,0.4-1.5l2.2-2.2c0.5-0.5,0.9-1.1,1.1-1.8c4.2-1.3,26.9-8,44.4-7.1
	C114.2,55.2,115,54.5,115,53.7z M57.3,67.7c-2.4-2.4-1.7-3.1-1.2-3.6c1.5-1.5,4.8-2.3,6-1.2c1.2,1.2,0.3,4.5-1.2,6
	C60.4,69.4,59.7,70.1,57.3,67.7z M65.7,61.8l-0.3,0.3c-0.2-0.5-0.6-1-1-1.5c-0.4-0.4-0.9-0.8-1.5-1l0.3-0.3c0.7-0.7,1.8-0.7,2.5,0
	C66.3,60,66.3,61.1,65.7,61.8z M37.4,92.7c-1.4,1-3.2,0.8-4.5-0.4l-0.2-0.2c-1.2-1.2-1.4-3.1-0.4-4.5c8.4-11.7,16.4-18.8,21.6-19.2
	c0.4,0.5,0.8,1,1.3,1.4c0.5,0.5,1,0.9,1.4,1.3C56.2,76.3,49.1,84.4,37.4,92.7z"/>
</svg>
