<?xml version="1.0" encoding="utf-8"?>
<!-- Generator: Adobe Illustrator 21.1.0, SVG Export Plug-In . SVG Version: 6.00 Build 0)  -->
<svg version="1.1" id="Capa_1" xmlns="http://www.w3.org/2000/svg" xmlns:xlink="http://www.w3.org/1999/xlink" x="0px" y="0px"
	 viewBox="0 0 130 120" fill="#ffffff" style="enable-background:new 0 0 130 120;" xml:space="preserve">
<g>
	<g>
		<path d="M80.9,107.5l-6.3-8.4l-3.1-17.7c0.5-0.3,1.1-0.7,1.6-1.1c0.3-0.3,0.7-0.6,1-0.8c1.2-1,2.6-2.1,3.5-3.5
			c0.4-0.1,0.7-0.2,1.1-0.4l0.6,1.9c0,0.1,0.1,0.3,0.2,0.4l4.2,6.3l2.1,8.5c0,0.1,0.1,0.2,0.1,0.3l2.2,4.4c0.1,0.2,0.2,0.3,0.3,0.4
			c0.5,0.5,1.2,0.6,1.8,0.3c0.8-0.4,1.1-1.3,0.7-2.1l-2.1-4.2L86.6,83c0-0.2-0.1-0.3-0.2-0.5l-4.2-6.4l-0.8-2.5
			c2.4-2.2,3.8-5.5,3.7-8.8c0.1,0,0.1-0.1,0.2-0.1c0.6-0.3,1.1-0.6,1.6-0.9l5.7,9.5c0.1,0.1,0.1,0.2,0.2,0.3
			c0.2,0.2,0.5,0.4,0.8,0.4l16.3,3.3c0.8,0.2,1.6-0.4,1.8-1.2c0.2-0.8-0.4-1.6-1.2-1.8l-15.7-3.1l-5.8-9.6c0.7-0.9,1.2-2,1.5-3.1
			c0,0,0,0,0,0l5.4-5.4c2.8-2.8,2.9-6.6,2.5-9.5l3.2,2.1c0.3,0.2,0.8,0.3,1.2,0.2l10.9-2.2c0.8-0.2,1.4-1,1.2-1.8
			c-0.2-0.8-1-1.4-1.8-1.2l-10.3,2.1l-4.6-3.1c0.7-1.1,1.1-2.4,1.1-3.7c-0.1-3.7-3.2-6.7-3.3-6.8c-0.1-0.1-3.1-3.3-6.9-3.3
			c-1.3,0-2.6,0.3-3.7,1.1l-3.1-4.6l2.1-10.3c0.2-0.8-0.4-1.6-1.2-1.8c-0.8-0.2-1.6,0.4-1.8,1.2l-2.2,10.9c-0.1,0.4,0,0.8,0.2,1.2
			l2.1,3.2c-2.9-0.4-6.7-0.3-9.5,2.5l-5.4,5.4c0,0,0,0,0,0c-1.1,0.3-2.2,0.8-3.1,1.5l-9.6-5.8l-3.1-15.7c-0.2-0.8-1-1.4-1.8-1.2
			c-0.8,0.2-1.4,1-1.2,1.8L51,31.4c0.1,0.3,0.2,0.6,0.4,0.8c0.1,0.1,0.2,0.2,0.3,0.2l9.5,5.7c-0.4,0.5-0.7,1-0.9,1.6
			c0,0.1-0.1,0.1-0.1,0.2c-3.4-0.1-6.6,1.3-8.8,3.7l-2.5-0.8l-6.4-4.2c-0.1-0.1-0.3-0.2-0.5-0.2l-8.5-2.1l-4.2-2.1
			c-0.8-0.4-1.7-0.1-2.1,0.7c-0.3,0.6-0.2,1.3,0.3,1.8c0.1,0.1,0.2,0.2,0.4,0.3l4.4,2.2c0.1,0.1,0.2,0.1,0.3,0.1l8.5,2.1l6.3,4.2
			c0.1,0.1,0.2,0.1,0.4,0.2l1.9,0.6c-0.2,0.4-0.3,0.7-0.4,1.1c-1.4,0.9-2.5,2.3-3.5,3.5c-0.3,0.4-0.6,0.7-0.9,1.1
			c0,0-0.6,0.7-1.2,1.6l-17.7-3.1l-8.4-6.3c-0.7-0.5-1.6-0.4-2.2,0.3c-0.5,0.6-0.4,1.5,0.1,2c0.1,0.1,0.1,0.1,0.2,0.1l8.7,6.5
			c0.2,0.1,0.4,0.2,0.7,0.3l16.8,3c-0.3,0.6-0.5,1.1-0.6,1.6c-1,0.7-1.9,1.5-2.7,2.4c-1.8,2.1-2.8,3.8-3,5.3c0,0,0,0,0,0
			c-1.2,1.7-1.4,4-0.7,6.6l-3.6-1.2c-0.3-0.1-0.5-0.1-0.8,0l-10.9,2.2c-0.8,0.2-1.4,1-1.2,1.8c0.1,0.3,0.2,0.6,0.4,0.8
			c0.4,0.4,0.9,0.5,1.4,0.4l10.5-2.1l5.5,1.8c1.2,2.5,3.1,5.1,5.5,7.5c2.4,2.4,5,4.2,7.5,5.5l1.8,5.5l-2.1,10.5
			c-0.1,0.5,0.1,1,0.4,1.4c0.2,0.2,0.5,0.4,0.8,0.4c0.8,0.2,1.6-0.4,1.8-1.2L54,94.6c0.1-0.3,0-0.5,0-0.8l-1.2-3.6
			c2.6,0.6,4.9,0.4,6.6-0.7c0,0,0,0,0,0c1.5-0.2,3.2-1.2,5.2-3c1.3-1.1,2.4-2.4,3.1-3.8c0.1,0,0.2,0,0.3,0c0.2,0,0.4-0.1,0.6-0.1
			l3.1,17.4c0,0.2,0.1,0.5,0.3,0.7l6.5,8.7c0,0.1,0.1,0.1,0.1,0.2c0.5,0.5,1.4,0.6,2,0.1C81.3,109.2,81.4,108.2,80.9,107.5z
			 M72.2,77c-0.4,0.3-0.8,0.6-1.1,0.9c-0.5,0.4-1.1,0.8-1.7,1.1c-0.1-2.3-0.6-4.4-1.1-6.2c-1.6-5.9-5.4-9.5-6-10c0,0,0,0,0,0
			c-0.2-0.2-0.8-0.8-1.8-1.6C58,59,53,55.6,46.4,54.8c0.2-0.3,0.5-0.6,0.7-0.9c0.3-0.4,0.6-0.8,0.9-1.1c1.6-2,2.7-3.2,4.1-3.2
			c1.8,0.1,3.6,0.5,5.1,1c6.2,2.1,10.4,6.5,10.4,6.6c0,0,0.1,0.1,0.1,0.1c0.1,0.1,7.1,6.4,7.6,15.5c0,0,0,0,0,0
			C75.4,74.4,73.9,75.7,72.2,77z M55.1,70.9C55.1,70.8,55.1,70.8,55.1,70.9c-0.2-0.2-0.4-0.4-0.5-0.5c-0.1-0.1-0.3-0.3-0.4-0.4
			c0,0-0.1,0-0.1-0.1c-0.1-0.1-0.2-0.2-0.3-0.3c-4.7-4.4-9.8-6.7-13.7-6.4c0.2-0.2,0.4-0.5,0.6-0.8c1.7-2,3.9-3.2,5.7-3.3
			c5.3-0.1,9.4,2.3,11.7,4.1c0.9,0.8,1.6,1.4,1.8,1.6c0,0,0,0,0,0c0,0,0,0,0.1,0.1c0,0,0,0,0.1,0.1c0,0,3.3,3.1,5.1,8.5
			c0.4,1.5,0.7,3.2,0.6,5c-0.1,1.9-1.3,4-3.3,5.7c-0.3,0.2-0.5,0.4-0.8,0.6c0.3-3.9-2-9-6.4-13.7C55.4,71.1,55.3,71,55.1,70.9z
			 M84.6,30.4C84.6,30.4,84.6,30.4,84.6,30.4c0.1,0,0.1,0.1,0.2,0.1c0,0,0,0,0,0c0.4,0.1,0.7,0,1.1-0.1c0,0,0,0,0,0
			c0,0,0.1,0,0.1-0.1c0,0,0,0,0,0c0,0,0,0,0,0c0.1,0,0.1-0.1,0.2-0.1c0,0,0,0,0,0c0,0,0,0,0,0c0,0,0,0,0,0c0.9-0.9,1.8-1.3,2.9-1.3
			c2.2,0,4.3,2,4.7,2.4l0.1,0.1c0,0,2.3,2.2,2.4,4.7c0,1.1-0.4,2-1.3,2.9c0,0,0,0,0,0c0,0-0.1,0.1-0.1,0.1c0,0,0,0-0.1,0.1
			c0,0,0,0,0,0c0,0-0.1,0.1-0.1,0.1c0,0,0,0,0,0c0,0.1-0.1,0.1-0.1,0.2c0,0,0,0,0,0c0,0.1,0,0.1-0.1,0.2c0,0,0,0,0,0
			c0,0.2,0,0.4,0,0.7c0,0,0,0,0,0c0,0.1,0,0.1,0.1,0.2c0,0,0,0,0,0c0,0.1,2.8,6.8-0.8,10.3l-3,3c0-0.3-0.1-0.5-0.1-0.8
			c-1.4-7-6-11.3-6.7-12c0,0,0,0,0,0c-0.6-0.7-5-5.3-12-6.7c-0.3-0.1-0.5-0.1-0.8-0.1l3-3C77.8,27.6,84.5,30.4,84.6,30.4z
			 M70.7,37.1c6.8,1.1,11.1,5.9,11.1,5.9c0,0.1,0.1,0.1,0.2,0.2c0,0,0,0,0.1,0.1c0,0,0,0,0,0c0,0,0,0,0,0c0,0,0,0,0.1,0.1
			c0,0,0,0,0,0c0.3,0.2,0.7,0.7,1.3,1.4c0,0,0,0,0.1,0.1c0.1,0.1,0.1,0.1,0.2,0.2c1.5,1.9,3.5,5.1,4.2,9.3c0.3,3-1,5.9-3.3,7.3
			c0,0,0,0,0,0c-1.7-5.6-5-9.7-6.8-11.7c-0.3-0.3-0.5-0.6-0.8-0.8c-0.2-0.2-0.3-0.3-0.4-0.4c0,0-0.3-0.3-0.3-0.3l0,0
			c-1-1.1-5.8-5.9-12.9-8c0,0,0,0,0,0C64.8,38.1,67.7,36.8,70.7,37.1z M61.7,43.2c2.3,0.6,4.4,1.6,6.2,2.6c0.1,0.1,0.2,0.1,0.3,0.2
			c0,0,0,0,0.1,0c2.7,1.6,4.6,3.4,5.5,4.2c0.1,0.1,0.2,0.2,0.3,0.3c0,0,0,0.1,0.1,0.1c0,0,0,0,0,0c0,0,0,0,0,0
			c0.1,0.1,0.1,0.1,0.1,0.1c0,0,0.1,0.1,0.1,0.1c0,0,2.7,2.4,5,6.3c0,0.1,0.1,0.1,0.1,0.2c0,0.1,0.1,0.1,0.1,0.2
			c0.9,1.7,1.8,3.6,2.3,5.7c0.7,3.4-0.6,7-3.4,8.8c0-0.1,0-0.2,0-0.2c0-0.1,0-0.1,0-0.2c0-0.1,0-0.2,0-0.3c0,0,0-0.1,0-0.1
			c0-0.1,0-0.2,0-0.3c0,0,0-0.1,0-0.1c0-0.1,0-0.2,0-0.3c0,0,0-0.1,0-0.1c0-0.1,0-0.2-0.1-0.4c0,0,0-0.1,0-0.1c0-0.1,0-0.3-0.1-0.4
			c0,0,0,0,0-0.1c0-0.1-0.1-0.3-0.1-0.4c0,0,0,0,0,0c-1.7-7.8-7.1-13.1-8-13.9c0,0-0.1,0-0.1-0.1c0,0-0.1-0.1-0.2-0.2
			c-1.3-1.3-7.7-7.5-16.9-8.3C54.7,43.8,58.3,42.5,61.7,43.2z M38.7,74.2c0-0.1-0.1-0.1-0.1-0.2c-1.4-3.1-1.5-5.7-0.3-6.9
			c0,0,0.1,0,0.1-0.1c2.1-2,8.4-0.2,14.1,5.5c5.7,5.7,7.5,12,5.5,14.1c0,0,0,0-0.1,0.1c-1.2,1.2-3.8,1.1-6.9-0.3
			c-0.1,0-0.1-0.1-0.2-0.1c-2.2-1-4.7-2.7-7.1-5.1C41.4,78.9,39.7,76.4,38.7,74.2z"/>
	</g>
</g>
</svg>
