<?xml version="1.0" encoding="utf-8"?>
<!-- Generator: Adobe Illustrator 21.1.0, SVG Export Plug-In . SVG Version: 6.00 Build 0)  -->
<svg version="1.1" id="Layer_1" xmlns="http://www.w3.org/2000/svg" xmlns:xlink="http://www.w3.org/1999/xlink" x="0px" y="0px"
	 viewBox="0 0 52.5 64.8" style="enable-background:new 0 0 52.5 64.8;" xml:space="preserve">
<style type="text/css">
	.st0{fill:url(#SVGID_1_);}
	.st1{fill:url(#SVGID_2_);}
	.st2{fill:url(#SVGID_3_);}
</style>
<g>
	<g>
		<linearGradient id="SVGID_1_" gradientUnits="userSpaceOnUse" x1="26.3" y1="62.81" x2="26.3" y2="2.7646">
			<stop  offset="0" style="stop-color:#219653"/>
			<stop  offset="1" style="stop-color:#49C124"/>
		</linearGradient>
		<path class="st0" d="M49.8,6.6l-21-6.2c-1.6-0.5-3.4-0.5-5,0L2.6,6.6C1.1,7,0,8.5,0,10.1v17.5c0,8.1,2.4,15.9,7,22.5
			c4.4,6.5,10.6,11.5,17.9,14.4c0.4,0.2,0.9,0.3,1.4,0.3s0.9-0.1,1.4-0.3c7.3-3,13.4-7.9,17.9-14.4c4.6-6.6,7-14.4,7-22.5V10.1
			C52.5,8.5,51.4,7,49.8,6.6z M49.5,27.6c0,7.5-2.2,14.7-6.4,20.8c-4.1,6-9.8,10.6-16.6,13.4c-0.2,0.1-0.4,0.1-0.6,0
			c-6.7-2.7-12.5-7.4-16.6-13.4C5.2,42.3,3,35.1,3,27.6V10.1c0-0.3,0.2-0.6,0.5-0.7l21.1-6.2C25.1,3,25.7,3,26.2,3
			c0.6,0,1.1,0.1,1.7,0.2L49,9.4c0.3,0.1,0.5,0.4,0.5,0.7V27.6L49.5,27.6z"/>
	</g>
</g>
<g>
	<g>
		<linearGradient id="SVGID_2_" gradientUnits="userSpaceOnUse" x1="26.2048" y1="62.81" x2="26.2048" y2="2.7646">
			<stop  offset="0" style="stop-color:#219653"/>
			<stop  offset="1" style="stop-color:#49C124"/>
		</linearGradient>
		<path class="st1" d="M42.6,13.1L26.9,8.5c-0.4-0.1-0.8-0.1-1.3,0L9.9,13.1c-0.9,0.3-1.6,1.1-1.6,2.1v12.4c0,6.5,2,12.8,5.7,18.1
			c2.9,4.1,6.8,7.5,11.2,9.9c0.3,0.2,0.7,0.3,1,0.3c0.4,0,0.7-0.1,1-0.3c4.4-2.3,8.3-5.7,11.2-9.9c3.7-5.3,5.7-11.6,5.7-18.1V15.2
			C44.2,14.3,43.5,13.4,42.6,13.1z M41.2,27.6c0,5.9-1.8,11.6-5.2,16.4c-2.6,3.6-5.9,6.7-9.8,8.8c-3.9-2.1-7.3-5.1-9.8-8.8
			c-3.4-4.8-5.2-10.5-5.2-16.4V15.8l15-4.4l15,4.4V27.6z"/>
	</g>
</g>
<linearGradient id="SVGID_3_" gradientUnits="userSpaceOnUse" x1="26.2501" y1="62.81" x2="26.2501" y2="2.7646">
	<stop  offset="0" style="stop-color:#219653"/>
	<stop  offset="1" style="stop-color:#49C124"/>
</linearGradient>
<path class="st2" d="M25,40.4c-0.5,0-1-0.2-1.3-0.6l-6.3-7.4c-0.6-0.7-0.5-1.8,0.2-2.5c0.7-0.6,1.8-0.5,2.5,0.2l4.7,5.5l7.6-13.1
	c0.5-0.8,1.6-1.1,2.4-0.6c0.8,0.5,1.1,1.6,0.6,2.4l-8.8,15.3c-0.3,0.5-0.8,0.8-1.4,0.9C25.1,40.3,25.1,40.4,25,40.4z"/>
</svg>
