<svg fill="#eee" height="480pt" viewBox="-44 0 480 480" width="480pt" xmlns="http://www.w3.org/2000/svg"><path d="m384 88h-24c0-4.421875-3.582031-8-8-8h-32c-4.417969 0-8 3.578125-8 8h-88v-16c0-4.421875-3.582031-8-8-8h-16v-16h24c13.234375 0 24-10.765625 24-24s-10.765625-24-24-24h-64c-13.234375 0-24 10.765625-24 24s10.765625 24 24 24h24v16h-16c-4.417969 0-8 3.578125-8 8v16h-120c-22.054688 0-40 17.945312-40 40v160c0 22.054688 17.945312 40 40 40h16c13.234375 0 24-10.765625 24-24s-10.765625-24-24-24c-4.410156 0-8-3.585938-8-8s3.589844-8 8-8c13.234375 0 24-10.765625 24-24s-10.765625-24-24-24c-4.410156 0-8-3.585938-8-8s3.589844-8 8-8c13.234375 0 24-10.765625 24-24s-10.765625-24-24-24c-4.410156 0-8-3.585938-8-8s3.589844-8 8-8h104v16h-16c-4.417969 0-8 3.578125-8 8v48c0 4.335938 3.457031 7.816406 7.757812 7.953125-2.4375 44.472656-25.164062 85.667969-61.886718 111.367187l-14.460938 10.125c-.230468.164063-.382812.394532-.59375.578126-.269531.234374-.515625.460937-.75.730468-.429687.488282-.773437 1.015625-1.070312 1.585938-.140625.269531-.308594.511718-.417969.796875-.347656.898437-.5625 1.839843-.566406 2.8125 0 .019531-.011719.03125-.011719.050781v80c0 30.875 25.121094 56 56 56h144c30.878906 0 56-25.125 56-56v-80c0-.019531-.011719-.03125-.011719-.050781-.003906-.972657-.21875-1.914063-.566406-2.8125-.109375-.285157-.277344-.527344-.417969-.796875-.296875-.570313-.640625-1.097656-1.070312-1.585938-.234375-.269531-.480469-.5-.75-.730468-.210938-.183594-.363282-.414063-.59375-.578126l-14.464844-10.125c-36.71875-25.699218-59.445312-66.894531-61.882812-111.367187 4.300781-.136719 7.757812-3.617187 7.757812-7.953125v-48c0-4.421875-3.582031-8-8-8h-16v-16h40.25c2.503906 49.6875 28.195312 95.246094 69.875 123.03125l5.4375 3.625c1.355469.90625 2.898438 1.34375 4.433594 1.34375 2.136718 0 4.257812-.851562 5.816406-2.5 2.675781-2.835938 2.925781-7.179688.585938-10.296875l-18.101563-24.140625c-18.25-24.335938-28.296875-54.484375-28.296875-84.890625v-6.171875h8c0 4.421875 3.582031 8 8 8h32c4.417969 0 8-3.578125 8-8h24c4.417969 0 8-3.578125 8-8v-32c0-4.421875-3.582031-8-8-8zm-232-64c0-4.414062 3.589844-8 8-8h64c4.410156 0 8 3.585938 8 8s-3.589844 8-8 8h-64c-4.410156 0-8-3.585938-8-8zm-120 120c0 13.234375 10.765625 24 24 24 4.410156 0 8 3.585938 8 8s-3.589844 8-8 8c-13.234375 0-24 10.765625-24 24s10.765625 24 24 24c4.410156 0 8 3.585938 8 8s-3.589844 8-8 8c-13.234375 0-24 10.765625-24 24s10.765625 24 24 24c4.410156 0 8 3.585938 8 8s-3.589844 8-8 8h-16c-13.234375 0-24-10.765625-24-24v-160c0-13.234375 10.765625-24 24-24h24v16h-8c-13.234375 0-24 10.765625-24 24zm272 280c0 22.054688-17.945312 40-40 40h-144c-22.054688 0-40-17.945312-40-40v-72h224zm-17.074219-88h-189.851562c37.429687-28.867188 60.386719-72.804688 62.726562-120h64.398438c2.339843 47.195312 25.296875 91.132812 62.726562 120zm-54.925781-136h-80v-32h16v8c0 4.421875 3.582031 8 8 8s8-3.578125 8-8v-8h16v8c0 4.421875 3.582031 8 8 8s8-3.578125 8-8v-8h16zm65.878906-3.078125c-10.300781-18.476563-16.4375-39.25-17.65625-60.921875h7.777344v6.171875c0 18.6875 3.410156 37.28125 9.878906 54.75zm-1.878906-76.921875h-80c-4.417969 0-8 3.578125-8 8v24h-32v-24c0-4.421875-3.582031-8-8-8h-88v-16h88c4.417969 0 8-3.578125 8-8v-16h32v16c0 4.421875 3.582031 8 8 8h96v16zm32 8v-32h16v32zm48-8h-16v-16h16zm0 0"/></svg>