<?xml version="1.0" encoding="iso-8859-1"?>
<!-- Generator: Adobe Illustrator 19.0.0, SVG Export Plug-In . SVG Version: 6.00 Build 0)  -->
<svg version="1.1" id="Layer_1" xmlns="http://www.w3.org/2000/svg" xmlns:xlink="http://www.w3.org/1999/xlink" x="0px" y="0px"
	 viewBox="0 0 512.002 512.002" style="enable-background:new 0 0 512.002 512.002;" fill="#2fba53" xml:space="preserve">
<g>
	<g>
		<circle cx="85.18" cy="410.836" r="10.681"/>
	</g>
</g>
<g>
	<g>
		<path d="M507.773,106.369l-92.665-45.022c-3.731-1.813-8.225-0.257-10.035,3.473c-1.812,3.73-0.257,8.223,3.473,10.035
			l78.764,38.268l-148.587,72.191V40.932l49.981,24.284c3.73,1.812,8.224,0.256,10.035-3.473c1.812-3.73,0.257-8.223-3.473-10.035
			l-57.062-27.724V8.918c0-4.148-3.361-7.509-7.509-7.509h-28.633c-4.147,0-7.509,3.361-7.509,7.509v257.557h-42.371
			c-14.413,0-28.288,6.072-38.067,16.663l-8.64,9.356H180.43v-4.562c0-4.148-3.362-7.509-7.509-7.509h-44.613v-6.439
			c0-4.148-3.362-7.509-7.509-7.509H7.509c-4.147,0-7.509,3.361-7.509,7.509v31.462c0,4.148,3.362,7.509,7.509,7.509
			s7.509-3.361,7.509-7.509v-23.953h98.274v156.313H15.018V330.472c0-4.148-3.362-7.509-7.509-7.509S0,326.324,0,330.472v114.842
			c0,4.148,3.362,7.509,7.509,7.509h113.292c4.147,0,7.509-3.361,7.509-7.509v-6.439h44.613c4.147,0,7.509-3.362,7.509-7.509v-2.344
			h25.672l14.197,11.493c12.244,9.913,27.664,15.372,43.418,15.372h30.834v47.197c0,4.148,3.362,7.509,7.509,7.509h28.633
			c4.148,0,7.509-3.361,7.509-7.509v-47.06h17.072c13.873,0,25.159-11.285,25.159-25.159c0-3.775-0.841-7.357-2.338-10.573
			c11.674-2.176,20.54-12.432,20.54-24.726c0-5.059-1.506-9.771-4.086-13.719c7.328-4.402,12.242-12.427,12.242-21.581
			c0-9.153-4.915-17.178-12.242-21.58c2.58-3.949,4.086-8.66,4.086-13.719c0-13.872-11.285-25.159-25.159-25.159h-14.431
			c5.807-7.022,9.3-16.024,9.3-25.826c0-4.148-3.361-7.509-7.509-7.509h-22.634v-64.211l169.57-82.386
			c2.586-1.256,4.228-3.879,4.228-6.754C512,110.249,510.359,107.626,507.773,106.369z M165.413,300.002v123.856h-37.104V295.44
			h37.104V300.002z M309.57,16.426h13.615v250.048H309.57V16.426z M323.185,495.576H309.57v-39.551h13.615V495.576z
			 M355.274,441.007h-23.169c-0.458-0.087-0.928-0.137-1.411-0.137h-24.927c-4.839-0.766-8.554-4.954-8.554-10.004
			c0-5.592,4.549-10.141,10.141-10.141h47.922c5.592,0,10.141,4.549,10.141,10.141C365.415,436.458,360.866,441.007,355.274,441.007
			z M373.477,405.709h-18.203h-47.922c-5.592,0-10.141-4.549-10.141-10.141c0-5.592,4.549-10.141,10.141-10.141h66.124
			c5.592,0,10.141,4.549,10.141,10.141C383.618,401.159,379.068,405.709,373.477,405.709z M391.775,360.268
			c0,5.592-4.549,10.141-10.141,10.141h-8.157h-66.125c-5.592,0-10.141-4.549-10.141-10.141s4.549-10.141,10.141-10.141h66.124
			h8.158C387.226,350.127,391.775,354.676,391.775,360.268z M373.477,314.827c5.592,0,10.141,4.549,10.141,10.141
			c0,5.592-4.549,10.141-10.141,10.141h-66.124c-5.592,0-10.141-4.549-10.141-10.141c0-5.592,4.549-10.141,10.141-10.141H373.477z
			 M352.203,281.493c-3.215,10.447-12.958,18.062-24.447,18.062h-36.782c-3.828,0-7.043,2.887-7.464,6.692
			c-0.02,0.171-1.985,17.335-9.71,34.066c-9.615,20.823-23.414,31.381-41.01,31.381c-4.147,0-7.509,3.361-7.509,7.509
			s3.362,7.509,7.509,7.509c20.697,0,37.751-10.632,49.806-30.884c-0.258,1.443-0.401,2.924-0.401,4.44
			c0,6.871,2.771,13.104,7.252,17.65c-4.48,4.545-7.252,10.779-7.252,17.65c0,6.871,2.771,13.104,7.252,17.65
			c-4.48,4.544-7.252,10.779-7.252,17.65c0,3.554,0.745,6.936,2.079,10.004h-20.556c-12.326,0-24.39-4.271-33.969-12.026
			l-16.263-13.166c-1.337-1.082-3.005-1.673-4.725-1.673h-28.33V307.511h28.33c2.095,0,4.095-0.875,5.516-2.415l10.87-11.77
			c6.945-7.521,16.799-11.833,27.034-11.833h49.88h28.633H352.203z M289.445,342.618c-0.163,0.165-0.321,0.333-0.48,0.504
			c0.098-0.233,0.196-0.467,0.292-0.7C289.321,342.487,289.382,342.553,289.445,342.618z"/>
	</g>
</g>
<g>
</g>
<g>
</g>
<g>
</g>
<g>
</g>
<g>
</g>
<g>
</g>
<g>
</g>
<g>
</g>
<g>
</g>
<g>
</g>
<g>
</g>
<g>
</g>
<g>
</g>
<g>
</g>
<g>
</g>
</svg>
